<svg id="Layer_1" data-name="Layer 1" xmlns="http://www.w3.org/2000/svg" viewBox="0 0 512 512"><title>world-globe-earth-handdrawn</title><g id="_31" data-name="31"><path d="M256,0C114.9,0,0,114.83,0,256S114.9,512,256,512,512,397.17,512,256,397.16,0,256,0Zm0,494.35C124.61,494.35,17.7,387.42,17.7,256S124.61,17.65,256,17.65,494.3,124.58,494.3,256,387.41,494.35,256,494.35ZM225.16,102.93H236.4V89.57h-9.85V55.14h14V37.58l.81-1.87c2.49-.05,5-.22,7.62-.22A220,220,0,0,1,282,38V49.55h16.11V93.42H285.89l-10.57,10.51-25.61,25.7L236.4,143,225.16,131.7ZM182,45.74l4.16,4.18-7.43,7.36H166.13v12.6h26.66v58.3H172.46V86h-14.1V65.64h-9.07V77.59l-8.79,8.8H119.78l-5.68-5.71A223.12,223.12,0,0,1,182,45.74Zm73.3,326.12H236.4l-9.85,14.07v31.59l-28.81,21.09v37.9L165.41,447V369.77L131,337.43v-39.3L107.15,280.6H86.07L71,265.48V244.74l-10.15-6.27L58,246.16,62.89,249v17.61L50.26,251.1l-6.33-24.61-5.64-1.4V182.15a225.42,225.42,0,0,1,51.13-79.93l70.34.71L157,117.67l-21.09,1.38,2.12,7L143,131.7l-5.62,9.11-16.88-2.07,9.89,13.36L147.15,164l5.62,13.36,7-2.07V140.81h19v4.25h19.68V168.9H190v9.85h-8.46v6.34h11.94l-7.73,7.71-3.13-3.14L175.25,197v6.31L168.6,210l-8.44,8.42-9.84,9.85-6.62,6.65V256h-9.23V244.74H104.33v12.73l29.5,28.09h59v5.62h21.13l23.15,29.47h18.26ZM434.39,241.21V259.5H404.21L389.4,244.74v-9.8h-8.68V248.7l20,20h22.84v16.49l-20.77,20.72v58.3H387V394l-12.29,12.25H345.81V379.71l-15.61-15.54V315.29l-19.39-19.38H270.23l-16-16V239.45L268,225.81h23.15l14.76-14.74h17.62v7.73h54v-9.45H363.88l8-8.11,7.74-7.71h13.28l-8.38-8.34H372l-13.29,13.23V208.8l-14.15-14.23h-8.83l13,13H338.19l-8.43-8.44v-5.63l-12.64-12.6-9.45,9.47-8.1,8.07v14.73H283.4V183.69h6V178.4l3.84-3.85-6.94-7.05-9.2,9.14-7.35-7.4,3.91-3.84V144.34h14.72v8.43l12.58,12.63h9.21v-9.85h28.06v-9.82h11.24v-14h-11.9V118.34h-6.34v26.72l-5,4.89-9.8-4.22-16.86-4.18,1.35-16.14,16.94-12.65,9.78-16.83,18.27-4.22-2.05,8.4,11.9,2.09-.68,8.4,13.32-1.42,6.34-4.2,1.34-7h28.17a223.91,223.91,0,0,1,69.46,162.19c0,3.45-.11,6.84-.27,10.27l-48.88-48.92-4.93,4.93Z" fill="none" stroke="#001e53"/><path d="M310.13,155.79l.35-.2s.28,1.38.37,1.54,2.36-1.45,2.4-1.38c.15.27-3.18,3.58-2.88,4.1s7.6-5.44,8.05-4.65c.13.23-8.8,5.92-8.3,6.79.2.34,10.18-7.59,10.92-6.31.55,1-10.86,7.54-10.43,8.27.17.29,14.28-9.8,15-8.63" fill="none" stroke="#00286f" stroke-linecap="round" stroke-linejoin="round" stroke-width="0.7"/><path d="M273.5,144.64l1-.57a33.15,33.15,0,0,1-1.11,3.3c.3.52,4.9-3.41,5.15-3,.17.29-5.19,5.36-5.19,5.36.43.74,9.35-6.06,9.64-5.57l-9.21,7.09s11.56-7,11.71-6.76c.51.88-11.72,8.09-11.17,9.05,0,.08,12.94-9.54,13.84-8,.52.91-14.26,10.43-14.16,10.6s13.88-10,14.74-8.51c1.12,1.94-15.87,10.87-15.48,11.55,0,0,15.31-9.38,15.55-9,0,0-16.23,9.11-15.32,10.69.24.42,15.45-9,15.51-9s-15.91,9.11-15,10.73c1,1.81,15.57-9.07,15.6-9,1,1.66-16.32,12-16.32,12,.7,1.22,16.59-10.83,17.13-9.89,0,0-21.1,11.95-20.05,13.77l22-12.68c.13.23-20.51,13.82-20.29,14.21,1,1.65,21.8-12.59,21.8-12.59.14.24-22.81,11.86-21.29,14.49s22.88-13.76,23.12-13.35c1.14,2-22.85,12.52-21.44,15l11.62-6.71c.08.14-9.19,7.3-9.19,7.3.25.43,3.88-2.24,3.88-2.24" fill="none" stroke="#00286f" stroke-linecap="round" stroke-linejoin="round" stroke-width="0.7"/><path d="M287,167.24c.23.39,9.62-5.81,9.73-5.62.57,1-8.52,7.33-8.52,7.33l10.4-6c.16.27-8.74,6.93-8.57,7.23.65,1.13,9.73-5.71,9.77-5.64.61,1.06-8.87,7-8.51,7.61.5.87,10.6-7.52,11.21-6.47.4.7-11.66,7.1-11,8.18l13.84-8c.35.61-12.25,8.6-12.12,8.83,0,.08,15.61-10.61,16.3-9.41,0,.09-21.38,12.79-20.52,14.28,2.29,4,38.82-27.33,40.95-23.64.15.26-40.79,26.28-40.79,26.28,2.93,5.07,46.91-27.08,46.91-27.08" fill="none" stroke="#00286f" stroke-linecap="round" stroke-linejoin="round" stroke-width="0.7"/><path d="M305.24,211.68s1.55-.94,1.57-.9-7.26,6.17-7.18,6.31c.21.37,10.29-6.82,10.67-6.16.1.18-15.65,9.82-15,10.88,0,0,16.73-12.61,18-10.4" fill="none" stroke="#00286f" stroke-linecap="round" stroke-linejoin="round" stroke-width="0.7"/><path d="M387.94,363.83c.73,1.26,14-9.52,14.65-8.46.39.67-12.26,8.34-12,8.83.59,1,12.66-7.31,12.66-7.31s-9.86,6.41-9.25,7.46c0,0,9-6,9.39-5.42.1.17-4.67,4.7-4.57,4.88.3.52,3.11-2.15,3.26-1.88a19.77,19.77,0,0,0,0,2.37,1.6,1.6,0,0,1,.21-.12" fill="none" stroke="#00286f" stroke-linecap="round" stroke-linejoin="round" stroke-width="0.7"/><path d="M424.45,221.79c2.43,4.2,38.94-27.54,41.13-23.75,2.47,4.28-40,22.74-38.61,25.12,0,0,38.31-24.6,39.38-22.74l-37.92,23.93c.46.79,37.51-22.74,38-21.93,0,0-38.73,19.59-36.66,23.18,1.23,2.13,37.6-21.71,37.6-21.71.51.88-36.59,24-36.59,24,2.3,4,35.75-23.43,37-21.34.21.36-36,21.31-35.21,22.7l34.8-20.09L433.09,230.8s33.43-24.64,35.74-20.64c2.08,3.6-34.89,21.42-34.6,21.91.72,1.25,32.19-22.09,33.71-19.46.23.4-32.52,21-32.52,21,.25.43,31.7-21.59,33.13-19.13.64,1.11-30.21,20.11-30.21,20.11,1.17,2,31.53-18.2,31.53-18.2,1.41,2.44-32.42,17.07-30.66,20.11.57,1,30.83-17.8,30.83-17.8.44.76-28.57,18.26-28.17,19L471,220.9c1.55,2.69-29,16.93-27.9,18.78,1.39,2.41,25.41-18.44,27-15.61,1.44,2.49-27.24,13.5-25.52,16.48,0,.05,24.16-18.12,26-15,1.47,2.54-25.12,16.53-25.12,16.53,1.33,2.31,25-16.25,25.8-14.9.5.86-23.77,16.1-23.77,16.1s22.73-16,24-13.84c0,0-23.74,14.31-22.91,15.75l23.72-13.69c.08.13-24.11,13.76-23,15.65,1.33,2.3,22.91-13.23,22.91-13.23s-22.58,12.26-21.36,14.38c0,0,20.48-12.71,20.86-12,.51.88-20.58,11.22-19.23,13.57.05.09,19.72-11.38,19.72-11.38l-17.88,12.3c1.1,1.9,17.33-10.9,17.72-10.23.69,1.2-16.89,11.67-16.58,12.22.07.13,17.78-10.27,17.78-10.27.37.65-15.41,11.75-15.41,11.75.62,1.08,14.64-9.23,15-8.65.43.75-15,9.08-14,10.77,0,0,14.1-10.27,15-8.67.53.92-13.29,9.92-13.2,10.08.71,1.23,11.83-8.64,12.61-7.28.42.73-11.76,7.68-11.31,8.47,0,0,11-7.83,11.64-6.72.3.52-9.56,7.74-9.56,7.74s9.1-6.21,9.52-5.5c0,0-10.07,6.66-9.4,7.82,0,0,9.71-6.37,10-5.8.08.13-8.3,6.33-8.07,6.73s7.85-5.64,8.33-4.81c0,0-6.54,5.45-6.48,5.57.28.48,5.64-3.36,5.68-3.28l-4.85,5.1c.29.51,4.93-2.85,4.93-2.85.23.4-2.59,3.78-2.38,4.15.09.15,2.63-1.84,2.77-1.6,0,0-1.32,3.09-1.28,3.16s1.31-.82,1.34-.77a25.77,25.77,0,0,1-1.23,2.64l1-.6" fill="none" stroke="#00286f" stroke-linecap="round" stroke-linejoin="round" stroke-width="0.7"/><path d="M381.59,234.62s74.52-55.91,80.1-46.25c.11.2-80.21,40.53-76.59,46.8.78,1.34,71.58-53.36,76.79-44.34,0,0-73.32,43-72.78,44,1.93,3.35,73.84-42.63,73.84-42.63,4.89,8.47-74.22,44.64-74.22,44.64s74.11-45.91,75.46-43.57c.49.85-74.64,45.16-74.64,45.16,4.12,7.14,70.76-49.38,74.45-43,0,0-76.39,41.38-74.44,44.76,0,0,69.32-51.75,74.4-43,1.6,2.78-76,44.44-75,46.15,1.74,3,31.84-19.15,32.17-18.57,0,0-32.94,18.65-31.56,21,2.11,3.66,29.85-19.51,30.84-17.81l-29.62,19.11c.49.85,31.59-18.24,31.59-18.24,1,1.81-29.69,17.64-29,18.85,1.12,1.94,30-17.52,30.08-17.37.28.49-29.62,17.27-28.63,19,0,0,28.67-20.87,30.54-17.63,1.24,2.14-29.57,19.82-29.57,19.82,1,1.69,29.37-19.27,30.37-17.53,0,0-30.13,16.06-28.6,18.72,1.4,2.43,30.94-17.95,31-17.89,1,1.71-31.12,15.49-29.13,18.93L429,236.75c2,3.46-28.3,18.38-28.3,18.38.16.27,30.12-18.66,30.67-17.71.42.72-29.38,18.81-29.38,18.81.54.94,29.68-17.55,29.86-17.24s-31,15.29-29,18.75c.73,1.27,28.79-19,29.82-17.22.86,1.49-30.58,16.82-29.37,18.92,1.63,2.82,29.35-20.85,31-17.92.89,1.55-28.16,14.3-26.31,17.51.35.6,25.11-16.34,25.91-15,0,0-23.12,13.23-22,15.17.66,1.15,22.21-14.55,23-13.25,0,0-20.52,12-19.58,13.57,0,0,19.67-11.55,19.75-11.4,1,1.72-16.59,11.24-16.37,11.63.14.23,14.67-10.82,15.69-9.06.14.25-12.5,9-12.48,9,.49.85,12.1-8.44,12.73-7.35s-8.91,6.56-8.72,6.9c.59,1,8.24-5.48,8.55-4.94,0,0-6,4.64-5.7,5.15,0,0,6.2-3.78,6.29-3.63s-2.57,3.74-2.56,3.77,1.74-1,1.74-1" fill="none" stroke="#00286f" stroke-linecap="round" stroke-linejoin="round" stroke-width="0.7"/><path d="M267.24,226.47l1.79-1c.27.47-7.48,5.54-7,6.38.39.67,9.72-6,9.89-5.71.95,1.64-15.32,9.7-14.88,10.46.74,1.27,17.16-12,18-10.42s-22.15,13.58-21.32,15c1.49,2.58,25.63-18.18,27.09-15.64L254.63,243.1c1.43,2.47,27.25-20.31,29.23-16.88,0,0-30.39,17.79-29.48,19.36,0,0,31.7-22.33,33.45-19.31s-35,20.52-34,22.31c2,3.44,62.07-42.72,65-37.55.2.35-65.29,40.25-65.29,40.25,1.65,2.85,67.91-42.29,69.24-40,4,6.95-69.1,41.66-69.1,41.66,1.68,2.91,67.81-42,69.05-39.87,3.41,5.91-71.29,35.78-67.79,41.84,2.49,4.31,66.89-41.13,68-39.25,4.71,8.16-69.91,41-69.08,42.4,2.11,3.65,67.43-45,70-40.43,4.62,8-73.77,35.35-69.43,42.88l71.81-41.46c2.23,3.86-77,34.91-72.13,43.39,3.14,5.43,72.58-48.21,75.31-43.48.81,1.41-79.78,36.85-74.71,45.61,4.52,7.83,77.75-46.68,78.53-45.34l-79.76,48.1c4.29,7.42,83-49,83.48-48.2.62,1.08-83.26,48.14-82.22,49.95,5.11,8.85,82-58.29,86.77-50.1,1.65,2.86-87.63,51.88-87,52.92,6,10.45,91.83-53,91.83-53,5,8.7-95.93,50.5-92.64,56.22,4.57,7.92,93.6-62.9,97.44-56.26l-96.59,58.36c4.42,7.66,96.88-65.48,101-58.32,3.55,6.15-104.92,55.88-101.82,61.25,5.88,10.19,106.18-61.3,106.18-61.3,7.21,12.48-106.49,60-104.72,63L365,218.48s-107.56,62.91-106.66,64.46c1.54,2.66,104.1-75.7,110.85-64,0,0-110.51,64.57-110,65.43,4.77,8.25,112.92-65.19,112.92-65.19,1.32,2.28-112.38,67.08-112.38,67.08,4.77,8.26,115.8-68.66,116.58-67.31,2.88,5-114.5,68.51-114.5,68.51,4.73,8.19,183-133.26,195-112.56,9.86,17.08-206,93.48-193.84,114.55,5.84,10.12,189.75-120.15,194.34-112.2,0,0-192.44,111.46-191.37,113.29,0,0,188-118.87,192.44-111.11,11.4,19.75-195.26,105.39-190.92,112.9,8.91,15.43,190.57-113,191.86-110.77,11.63,20.14-191.18,111-190.24,112.62,0,0,191.6-110.84,191.7-110.68,2.69,4.65-192.77,106.29-189.5,112L461.08,185.85C472,204.69,261.15,274.74,273.61,296.32,280.82,308.8,461,188.15,461,188.15s-187.8,97.44-182,107.48C282,300.94,380.69,236.18,381,236.71c4.84,8.39-99.35,57.75-98.35,59.49C288,305.43,376.49,234,379.94,240c6.21,10.75-96.91,48-92.5,55.62.42.74,88.55-63.46,93.89-54.21,1.38,2.4-91.63,54.64-91.63,54.64,3.57,6.18,90.6-52.66,90.75-52.39,5.64,9.76-85.3,51.77-85.3,51.77s80.27-58.67,85.61-49.43c0,0-88.19,40.4-82.59,50.09,1.25,2.16,77.61-55,82-47.35,2.56,4.44-76.48,46.17-76.14,46.76,4.55,7.88,76-50.11,78.7-45.44,0,0-76.69,44-75.61,45.87,4,6.92,71.56-52.69,76.49-44.16l-72.57,44.09c.37.64,72-47.42,74.53-43,1.69,2.92-78.77,36.55-73.85,45.08l75.17-43.4c.83,1.44-75.27,41.06-73,44.94,1.63,2.83,71.58-49.21,75-43.3,4.34,7.52-77.27,39.05-74.07,44.6,0,0,72.63-46.58,74.65-43.1L317,302c2.7,4.68,70-51.89,75-43.28,2.85,4.94-75.38,41.37-73.67,44.33,2.6,4.5,68.8-51.1,73.72-42.56,2.88,5-72,44.13-71.92,44.19,3.49,6.05,71.38-47.17,74-42.7,4.74,8.22-75.93,37.67-72.47,43.67,2.66,4.61,73.31-42.33,73.31-42.33,3.4,5.88-76.32,38.3-72.85,44.32l75.11-43.36c4.41,7.63-75.46,42-73.67,45.07,2.85,4.94,74.84-43.21,74.84-43.21,2.92,5.06-74.35,42.73-73.45,44.29,2.48,4.29,70.12-50.56,74.48-43,5,8.6-78,36.33-73.41,44.27,0,0,69.6-51.13,74.34-42.92,2.28,3.95-72.24,44.11-72.16,44.25s76.3-46.08,77.18-44.56c3.12,5.4-77.46,43.65-75.75,46.59.48.83,78.6-48.17,79.8-46.07,1.52,2.64-80.43,47.38-79.82,48.43,2.18,3.77,81-56.32,85.15-49.16,3.4,5.88-84.75,51.55-84.75,51.55s87.43-52.67,88.38-51c5.34,9.24-93,43.2-87.64,52.56,1.17,2,86.7-60.72,91.32-52.72,1.09,1.89-93.61,50.7-91.22,54.85,1.16,2,87.73-61.87,92.58-53.45,1.86,3.22-94.61,54.81-93.86,56.12,2.05,3.55,89.11-64.25,94.66-54.65.38.65-96.35,53.29-94.19,57,6.24,10.81,89.77-60.85,93.68-54.09.93,1.61-97.33,50.16-93.8,56.28,0,0,90.6-58.24,93.17-53.79,0,0-98.91,47.16-93.49,56.55,2.09,3.61,89.94-60.71,93.75-54.13L330,335c4.57,7.91,88.81-61.56,93.27-53.85,0,0-96.63,50.78-93.59,56,2.88,5,91.26-58.27,93.68-54.09,3.59,6.21-94.17,55.8-93.87,56.33,1.62,2.8,91.64-57.67,93.7-54.1,4,7-97.27,49.61-93.43,56.27,3.47,6,85.57-57,88.88-51.31,5.16,8.94-93,47.16-89.14,53.81,2.7,4.67,79.75-54.57,83.44-48.18,3.79,6.57-86.35,43.66-82.52,50.3l75.46-43.57s-80.44,37.46-75.64,45.77c3.65,6.32,69.19-46.75,72.14-41.65,0,0-74.39,40.83-72.66,43.81l72.55-41.89c4.67,8.08-73.42,43.58-72.75,44.74,2.51,4.35,72.37-45.48,74-42.71,0,0-75.16,41-73.26,44.27,2.18,3.78,72-44.23,73.13-42.22,5,8.7-72.36,43.7-72.36,43.7,2,3.39,69.28-46.78,72.22-41.7,5,8.61-76.93,37.47-72.76,44.71,0,0,67.68-49,72-41.56,2.45,4.24-72.59,43.9-72.59,43.9.4.69,69.83-45.76,72.19-41.68,2.54,4.4-71.12,43.33-71.12,43.33s67-49.63,71.76-41.43c2.44,4.22-76,35.5-71.49,43.37,0,0,71.12-42.25,71.63-41.36,4.86,8.42-73.53,38-70.58,43.07,0,0,66.38-47.23,70.23-40.55,2.22,3.85-70.49,38.2-68.4,41.82.59,1,65.68-43.9,68.27-39.42,3.74,6.47-68.86,36.45-66.64,40.31,4,6.89,64.28-42.29,66.52-38.41,4.4,7.62-69.81,33.35-65.72,40.43,0,0,64.58-42,66.61-38.46,1.31,2.27-64.94,40.25-64.94,40.25s62.5-39.94,64.17-37c.69,1.19-64.6,33.84-61.93,38.47,3.58,6.2,62.08-35.84,62.08-35.84,2.31,4-59.77,37.15-59.77,37.15C344.17,378.36,402,339.3,403,341c3,5.28-60.24,34.19-58.8,36.68,2.91,5,58.48-34.26,58.69-33.89,2.22,3.85-59.32,32.31-57.57,35.34.48.82,56-33.93,56.71-32.74,2.29,4-59.87,28.36-56.41,34.34,3.29,5.7,55.36-37.51,57.76-33.35C405,350.24,346,382.53,346,382.53c2.1,3.63,56.42-32.57,56.42-32.57.09.16-57,35.29-57,35.29L403.13,352c1,1.75-58,35-57.85,35.27,2.6,4.51,57-32.91,57-32.91,1.65,2.86-56,34.27-55.9,34.52.7,1.22,41.17-23.77,41.17-23.77,2,3.44-41.49,26.66-41.49,26.66.23.4,39.42-24.66,40.24-23.23,1.57,2.72-41,23-39.81,25.14,2.38,4.12,39.88-23,39.88-23,1.64,2.85-41,25.6-40.64,26.22,2.12,3.67,41-25.83,41.91-24.2,1.67,2.89-43.85,22-41.54,26.06l40.3-23.27c2.16,3.74-40.1,25.6-40.1,25.6s39.25-25,40.29-23.26c0,0-40.79,24.64-40.35,25.4.86,1.48,39.81-27,41.54-24,2,3.49-42.48,26.8-42.48,26.8l42.09-24.3c.94,1.63-40.49,21.55-38.84,24.4,2,3.52,37.92-21.89,37.92-21.89,1.76,3-34.21,22.12-34.21,22.12,1.17,2,33.21-21.7,34.31-19.81.88,1.53-29.63,18-28.84,19.41,0,0,29.3-17.46,29.53-17.05,1.51,2.62-26.71,17-26.31,17.69,0,0,25.16-16.8,26.14-15.09,0,.08-22.61,12.29-21.43,14.33.71,1.22,19.39-14.33,20.74-12,.2.35-16.91,11.64-16.7,12,.71,1.22,12.15-7,12.15-7,.51.89-9,7.84-9,7.84.16.28,3.62-2.35,3.73-2.15" fill="none" stroke="#00286f" stroke-linecap="round" stroke-linejoin="round" stroke-width="0.7"/><path d="M379.68,193.75s.27-.17.28-.16c.4.69-5,5-5,5,.6,1,7.91-5.78,8.44-4.87.69,1.19-13.36,8-12.71,9.13.91,1.58,16.36-10.24,16.7-9.64.51.88-23.49,16-23.49,16,.62,1.08,27.53-16,27.58-15.92S369,208.72,369.12,209c3.22,5.57,82-47.35,82-47.35s-82.18,43-79.48,47.64c0,0,77.72-51.18,80.45-46.45,0,0-80.24,40.61-76.69,46.76.56,1,77.56-44.78,77.56-44.78,1.62,2.8-76,43.08-74.69,45.41,0,0,74.18-44,74.68-43.12,2.81,4.87-75.9,46.49-75.9,46.49,2.5,4.34,73.15-51.34,77.09-44.51,5,8.67-77.36,46.8-77.36,46.8,2.74,4.74,76.54-49.3,78.75-45.47,2.54,4.41-77.74,47.45-77.74,47.45s77.42-47.32,78.56-45.36" fill="none" stroke="#00286f" stroke-linecap="round" stroke-linejoin="round" stroke-width="0.7"/><path d="M372,185.33c1.37,2.38,69-43.19,70.47-40.69.32.55-67.22,40.66-67.22,40.66s67-39.24,67.22-38.81c2.59,4.48-66.23,31-61.87,38.59s63.43-36.62,63.43-36.62-61,34.84-59.86,36.82c0,0,58.44-39.32,60.86-35.13,0,0-59.4,34.3-58.54,35.78,1.86,3.21,58.44-34.49,58.76-33.93,0,0-60.25,32-58,35.82,0,0,58.68-36.27,59.72-34.48.71,1.24-62.48,29.81-58.77,36.23,0,0,57.26-36.53,58.76-33.93,2.27,3.94-59.28,29.4-56.32,34.53,1.54,2.67,57.48-33.19,57.48-33.19.9,1.56-57.22,34.88-57,35.31,2.37,4.11,58.71-33.9,58.71-33.9s-58.39,34-57.62,35.39c2,3.44,55.52-37.54,57.9-33.43" fill="none" stroke="#00286f" stroke-linecap="round" stroke-linejoin="round" stroke-width="0.7"/><path d="M336.48,194.27c3.29,5.69,96.4-63.89,100-57.72s-95.6,57.29-95.32,57.79c2.42,4.19,92.43-63.22,96.7-55.83,3,5.12-93.28,56.64-93.28,56.64s88.89-63.71,94.26-54.42c6.4,11.09-97.86,46.46-92.63,55.51,4.48,7.76,93.9-54.21,93.9-54.21s-95,52.39-92.95,56,92.48-58,94.49-54.56c5.83,10.1-96,49.37-92.11,56.05,0,0,19.38-11.22,19.39-11.2.78,1.34-18.54,12.82-18.54,12.82.68,1.17,12.4-9,13.18-7.61.69,1.19-11,8.1-11,8.1l6.76-3.9s-6.3,5.65-6.23,5.77c.26.46,5-3.23,5.18-3,0,0-4.26,4.14-4,4.51s3.73-2.65,4-2.28-1.83,3.42-1.69,3.66c0,0,2.71-1.88,2.84-1.64s-1.63,2.73-1.63,2.73,1.18-.77,1.22-.7" fill="none" stroke="#00286f" stroke-linecap="round" stroke-linejoin="round" stroke-width="0.7"/><path d="M316.89,181.18c4.87,8.44,100.84-70.58,106.2-61.31,7.25,12.55-106.5,60.29-104.89,63.07,5.51,9.54,107.3-61.95,107.3-61.95,2.28,4-106.17,59.7-104.31,62.93.52.9,101.8-65.9,104.89-60.56,4.85,8.4-104.34,61.9-104.28,62,1.47,2.55,103.35-65.47,105.86-61.12,6.83,11.83-107.79,57.61-104.63,63.09,1.57,2.72,102.09-68.15,106.08-61.24,5.83,10.09-109.06,54.26-104.3,62.5l105.45-60.88c7.12,12.34-104.94,61.92-104.68,62.37,3.1,5.37,105.48-62.08,106-61.19,0,0-106.19,57.29-103.3,62.28,3,5.25,97.86-71.15,104.2-60.16,6.89,11.94-105.06,59.26-103.62,61.75,6,10.44,98.64-71.25,104.83-60.52,1.59,2.76-111.45,50.51-104.26,63,3.51,6.07,98.91-73.43,106-61.19,2.14,3.7-106.66,60.14-104.86,63.27,5.73,9.93,102.44-68.3,106.4-61.43,0,0-113.13,51.16-106.2,63.15.14.23,6.41-3.7,6.41-3.7s-5.15,4.69-4.94,5.07,6.3-3.64,6.3-3.64c.1.17-5.13,5.75-5.13,5.75l6.68-3.86c.22.39-5.08,5-5.08,5,.34.59,5.69-4,6-3.47l-4.72,5.4c.24.42,6.95-5,7.36-4.25,0,0-6.2,4.71-5.9,5.23s6.18-4.5,6.58-3.8-4.81,4.9-4.72,5.06,5.24-3.88,5.61-3.24a21.64,21.64,0,0,0-.75,3l2.08-1.2c.11.2,2.17.69,2.28.88a3.8,3.8,0,0,1,.39-.23" fill="none" stroke="#00286f" stroke-linecap="round" stroke-linejoin="round" stroke-width="0.7"/><path d="M283.82,183.68s0,0,0,0-.54,2.44-.48,2.54,4.73-3,4.86-2.81-4.95,4.94-4.71,5.34c2.56,4.43,134.09-77.75,134.23-77.5,3.23,5.6-139.18,71.31-134.09,80.14,0,0,126.65-92.43,135-77.95,7.86,13.61-140.56,71.18-135.42,80.07.93,1.61,128.69-91.27,136-78.54,6.62,11.46-142.69,69.68-136,81.34,0,0,129.77-94,138-79.68.4.7-141.07,77.14-138.45,81.69.84,1.46,133.18-90,138.84-80.16.34.58-146.48,67.16-137.91,82,0,0,31.49-21.87,33.09-19.1s-34.18,21.08-33.54,22.19c1.77,3.07,26.08-15.08,26.09-15.06.81,1.4-26.38,17.23-26.29,17.38C283.88,206.79,305,193,305,193l-21.72,15.33c.22.38,15.25-9.33,15.48-8.93.12.2-16.44,9.75-15.73,11,0,0,16.6-10.88,17.16-9.91.34.59-17.09,9.62-16.22,11.13.33.57,14.93-9.61,15.36-8.87l-14.61,10.44c.85,1.47,14.78-8.72,14.86-8.58.56,1-10.58,8.15-10.56,8.19s10.4-7,10.82-6.25c.62,1.07-7.91,6.71-7.91,6.71s8.12-5,8.25-4.76l-3.51,4.5s3.62-2.17,3.65-2.11" fill="none" stroke="#00286f" stroke-linecap="round" stroke-linejoin="round" stroke-width="0.7"/><path d="M337.8,146.19l.07,0,.86,1.53c.05.09,4-2.32,4-2.32s-5.36,4.77-5,5.42c.28.48,8.36-6.08,8.9-5.14,0,0-8.06,7.16-8.06,7.16,2.94,5.09,75.34-44.81,75.9-43.82,3.93,6.8-79.77,40.19-76.26,46.27l78.17-45.13" fill="none" stroke="#00286f" stroke-linecap="round" stroke-linejoin="round" stroke-width="0.7"/><path d="M376.41,98.06l.16-.09a12.73,12.73,0,0,0-1.35,2.56c.15.27,3.54-2.23,3.62-2.09l-3.11,4.26c.41.71,7.51-5.08,7.83-4.52,0,0-12.54,8.73-12.28,9.18.07.13,15-10.42,15.78-9.11" fill="none" stroke="#00286f" stroke-linecap="round" stroke-linejoin="round" stroke-width="0.7"/><path d="M331.08,118.59c.13.22,23.47-14.47,23.87-13.78.22.38-19.87,11.22-18.6,13.42s17.36-12.7,18.52-10.69c0,0-17.4,12.11-17.26,12.35,1.09,1.89,16.77-10.07,16.94-9.78.85,1.48-17.28,9.76-16.3,11.45,1.26,2.19,19-10.95,19-10.95.74,1.29-20.43,10.77-19.21,12.89,0,0,24-14.39,24.22-14,.7,1.2-26.45,13.87-24.88,16.59,0,0,27.82-16.7,28.1-16.22,0,0-30.45,15.3-28.44,18.78,1.48,2.56,50.73-36.06,53.66-31,3.11,5.39-53,33.31-53,33.31,1.94,3.36,56.8-34,57.34-33.11,0,0-56.51,30.52-54.69,33.66,0,0,57.1-34.07,57.58-33.24l-52.8,33.31c1.8,3.11,56.66-36.27,58.2-33.6,3.65,6.32-56.08,31.3-54.84,33.46,0,0,53.91-36,56-32.33,0,0-59.31,27.43-55.48,34.07,2.75,4.77,57-32.93,57-32.93,1.87,3.23-56.83,34.93-56.58,35.36.47.81,55.74-37.51,58-33.51,1.15,2-58.27,35.59-58.27,35.59.11.19,56.07-40.41,59.55-34.38,0,0-59.49,36-59.29,36.35,3.19,5.52,61.2-35.46,61.26-35.37,3.15,5.45-64,34.72-61.76,38.53.9,1.57,63.64-36.74,63.64-36.74,2.41,4.17-62.77,38.37-62.77,38.37,1.82,3.16,61.55-42.36,64.5-37.24" fill="none" stroke="#00286f" stroke-linecap="round" stroke-linejoin="round" stroke-width="0.7"/><path d="M327.82,96.07s.61-.41.64-.37c.17.29-2.36,3.8-2.36,3.8s8.84-5.3,8.92-5.15c.87,1.51-12.49,8.66-12.13,9.3l19.6-11.31c.6,1-21.46,14.14-21.43,14.19.69,1.2,23.42-15.14,24.12-13.92s-26.4,13.32-24.64,16.38,24.09-15.43,24.75-14.29-32.74,16.93-30.68,20.5L345,97.66c1,1.66-43.51,27.3-43.51,27.3.2.35,42.37-24.46,42.37-24.46s-43.63,26.31-43,27.32l47.16-27.23c2.56,4.44-48.78,25.88-47,29,.35.61,47.19-32,49.25-28.44,0,0-50.62,29.08-49.58,30.89,1.59,2.75,49.89-33.59,52-30,1.65,2.86-52.93,32.34-52.9,32.39,2,3.54,54.63-33.27,55.38-32,.88,1.53-57.51,29.4-55,33.81.51.88,53.4-35.48,55.41-32,3.82,6.61-57,32.55-55.85,34.48.12.2,31.94-18.44,31.94-18.44l-32.28,21,31.23-18c.12.21-28.74,18.47-28.63,18.65s29.9-17.27,29.9-17.27c1.27,2.2-29.41,16-28,18.5S330.6,126,331.3,127.25c1.26,2.18-23.57,15.23-23.06,16.1l22.55-13c.06.11-20.12,14.31-20.12,14.31l19.9-11.49c.35.61-15.58,11.34-15.41,11.64.74,1.27,14.41-10.27,15.26-8.81.43.74-13.23,8.46-12.52,9.7.25.43,11.9-8.4,12.56-7.25s-11.12,8.22-10.67,9c0,.07,10.61-6.8,10.9-6.29.47.82-8.3,5.8-7.78,6.7s9-5.19,9-5.19-6.28,6-6,6.37,3.73-2.16,3.73-2.16" fill="none" stroke="#00286f" stroke-linecap="round" stroke-linejoin="round" stroke-width="0.7"/><path d="M285.75,93.67c.37.64,11.31-7.8,11.85-6.84l-7.82,6.71c.23.39,7.88-5.46,8.28-4.78.27.47-3.86,3.9-3.63,4.31,0,0,3.68-2.58,3.88-2.24a22.9,22.9,0,0,0-1.06,2.88s.18-.16.2-.12" fill="none" stroke="#00286f" stroke-linecap="round" stroke-linejoin="round" stroke-width="0.7"/><path d="M225.45,103s.32-.23.34-.19-.29,2.08-.27,2.11c.2.35,3.5-2,3.5-2,.23.4-4.16,3.74-3.81,4.34.09.16,7.05-4.38,7.19-4.15L224.77,110c3.9,6.75,73.14-44.4,74.08-42.77,1.25,2.16-74.17,45.69-74.17,45.69,3.7,6.42,69.66-50,73.92-42.68.41.71-73.76,45.34-73.76,45.34,5,8.74,69.71-49,73.48-42.43,0,0-75.6,41.18-73.75,44.39,3.67,6.35,74-42.71,74-42.71,1.5,2.6-73.52,44.38-73.52,44.38s69-50.52,73.61-42.5c.86,1.5-76.36,38.6-72.9,44.59,1.74,3,71-43.73,72.22-41.7,1.79,3.09-72.3,44-72.3,44,2.11,3.65,67.79-50.1,72.53-41.88,4,6.91-77.44,38.15-73.75,44.54,3.55,6.15,69-49.89,73.39-42.37,4.92,8.52-73.2,44.26-73.12,44.4,1.69,2.93,71.11-47.28,73.8-42.61,3.33,5.77-77.61,38.61-73.85,45.11,0,0,52.52-37,55.43-32,2.55,4.42-54.93,33.61-54.93,33.61,2,3.42,50.84-31.55,51.79-29.9,1.45,2.52-50.83,31-50.6,31.36s42.48-30.33,45-26c1.35,2.33-42.08,26.74-42.08,26.74,1.63,2.82,35-22.83,36.16-20.87l-35.3,22.16C232,139.26,262,117.54,262,117.54c1.73,3-31.47,20.09-31.47,20.09s24.37-17,25.65-14.81c.47.82-25,14.49-24.1,16,.26.45,19.62-11.33,19.62-11.33.76,1.32-17.74,12-17.45,12.55,0,0,11.14-7.34,11.53-6.66s-10.16,8.13-10.16,8.13c.15.26,4.49-2.59,4.49-2.59" fill="none" stroke="#00286f" stroke-linecap="round" stroke-linejoin="round" stroke-width="0.7"/><path d="M226,55.66s.39-.23.39-.23c.13.22-.55,3-.5,3.14S232,54.63,232.18,55s-6.11,5.59-6.11,5.59c.23.41,8.75-5.05,8.75-5.05.51.88-8.7,6.86-8.5,7.2s13.07-9.06,13.72-7.92c.14.25-13.75,10-13.75,10,2,3.54,48-27.69,48-27.69L226.19,67c3.44,5.95,49.48-32.69,51.26-29.6.66,1.15-53.67,28.75-51.5,32.51,1.47,2.55,54-33,54.79-31.63,2.14,3.72-55.69,32-54.41,34.23,2.16,3.74,53.48-37.36,56.29-32.5,0,0-58.28,29.2-55.38,34.23,1.79,3.09,52.49-36.65,55.24-31.89,2.18,3.78-55.9,32.63-55.3,33.67,1.57,2.71,54.41-31.41,54.41-31.41,1,1.81-56.62,31.12-55.06,33.81.46.8,53.28-35.41,55.3-31.92L226.61,80.6l56-32.34S222.1,76.51,225.87,83L284,49.49c1.4,2.43-58,35.73-58,35.73,1.26,2.18,60-39.77,62.22-35.92,2.54,4.39-62.32,37.41-62,37.95,3.41,5.91,62.93-43,65.83-38,1.64,2.84-64.87,39.37-64.87,39.37L294.6,49.69c.08.13-66,36.72-64.33,39.58.67,1.17,65.3-42.58,67.41-38.92,0,0-68,31.82-63.61,39.41,4.17,7.23,61.16-40.25,63.3-36.55,4,6.94-64.66,32.71-61.62,38,2.72,4.71,62.48-36.07,62.48-36.07L235.91,93.57c.31.53,62.87-36.3,62.87-36.3,1.33,2.3-65.32,33.75-62.5,38.64,2.41,4.17,62.59-36.14,62.59-36.14C299.81,61.4,233.21,93.11,236,98l62.09-35.85c2.86,5-64.31,33.52-61.86,37.76,3.43,5.95,61.31-35.4,61.31-35.4.24.42-62.2,36.86-61.45,38.15.13.23,60.5-39,62.27-35.95" fill="none" stroke="#00286f" stroke-linecap="round" stroke-linejoin="round" stroke-width="0.7"/><path d="M241.55,35.86l.58-.34A28.15,28.15,0,0,0,240.59,39c.1.16,6.49-3.75,6.49-3.75.19.33-6,5.18-5.92,5.39.38.66,8.91-6.33,9.42-5.44.34.58-10.68,6.76-10.05,7.86L254,35.34c0,.07-13.52,10-13.41,10.16.58,1,16.2-9.35,16.2-9.35L240.21,48.42c1.4,2.42,21.06-13.06,21.45-12.39.92,1.6-23,12.82-21.67,15.11.09.15,24.35-17,25.62-14.79C267.12,39,238.79,50.9,240.3,53.52c0,0,29-19.3,30.12-17.39" fill="none" stroke="#00286f" stroke-linecap="round" stroke-linejoin="round" stroke-width="0.7"/><path d="M236.18,372.16s18.51-11.22,18.75-10.82-14.19,9-13.54,10.18,14.28-9.09,14.65-8.46c.22.39-12.39,7.92-11.9,8.77.62,1.07,11.05-7.06,11.35-6.55.07.13-8.14,6.49-8.12,6.52.35.61,8.07-5.3,8.35-4.82,0,0-3.55,4.64-3.47,4.78s3.28-2,3.33-1.92" fill="none" stroke="#00286f" stroke-linecap="round" stroke-linejoin="round" stroke-width="0.7"/><path d="M104.85,244.62c.25.43,67.28-43.17,69.16-39.93,3.3,5.72-69.91,33.68-66.1,40.29,0,0,56.17-41.54,60.11-34.7.45.78-60.46,28.89-57.07,34.76,3.66,6.33,53.17-30.7,53.17-30.7s-49.56,27-47.65,30.27c.42.72,41.61-24,41.61-24S119.12,243,120,244.52c.62,1.07,31.76-20.7,32.78-18.93L123.87,245c1.41,2.44,22.42-12.94,22.42-12.94s-18.7,13-18.7,13c.76,1.31,16.32-10.48,16.78-9.69,0,0-13.61,8.8-13.14,9.6,0,0,11.6-7,11.75-6.78s-9.75,6.71-9.07,7.9c.53.91,10-7,10.52-6.08,0,0-10.54,8.43-10.53,8.44.24.42,9.14-5.79,9.36-5.41.06.11-8.86,6.1-8.34,7,0,0,8.24-6,8.78-5.07,0,0-9.25,7.62-9.21,7.7.47.81,8.52-5.73,8.87-5.12,0,0-8.72,6.41-8.54,6.72,0,0,8.69-5.18,8.76-5.06.41.72-7.14,6.34-7.14,6.34.46.8,7.27-4.2,7.27-4.2s-3.72,4.25-3.69,4.3,4.11-2.45,4.15-2.39a20.2,20.2,0,0,0-.81,2.69s.34-.23.35-.2" fill="none" stroke="#00286f" stroke-linecap="round" stroke-linejoin="round" stroke-width="0.7"/><path d="M182.18,190.11c.13.23,8-5.37,8.29-4.79,0,0-6.83,4.66-6.33,5.53,0,.06,7.92-4.84,8-4.64l-6.48,6.44s.57-.41.6-.35" fill="none" stroke="#00286f" stroke-linecap="round" stroke-linejoin="round" stroke-width="0.7"/><path d="M182.07,178.66c.24.42,8-5.67,8.43-4.87.1.17-3,4.51-3,4.51.1.18,2.08-1.61,2.25-1.3" fill="none" stroke="#00286f" stroke-linecap="round" stroke-linejoin="round" stroke-width="0.7"/><path d="M189.73,169.27c.34.59,8.42-4.86,8.42-4.86.26.46-3.58,4.6-3.58,4.61.21.36,3.77-2.19,3.78-2.18a22.89,22.89,0,0,0-.82,2.36s1-.59,1-.59" fill="none" stroke="#00286f" stroke-linecap="round" stroke-linejoin="round" stroke-width="0.7"/><path d="M61.09,238.49C68.73,251.71,199,158.9,199,158.9S61.46,236.4,63.27,239.53c0,0,129.62-87.89,135.27-78.1,8.26,14.3-139.42,68.18-132.94,79.4,4.2,7.28,124.14-71.67,124.14-71.67S65.59,241.87,65.94,242.48c7.29,12.62,118.9-80.07,123.85-71.5,6.62,11.46-128.27,60.94-121.62,72.45,0,0,121.87-71.11,122.19-70.55,5,8.6-121.55,69.8-120.25,72.06,6.22,10.77,110.49-66.45,111.64-64.46,2.5,4.33-118.61,54.59-111.44,67C75.58,256.6,181,183.59,181,183.59L71.7,248.79c.17.3,104-73.72,109.88-63.44,3.22,5.58-110.74,66.76-110.74,66.76s115.37-68.32,116.11-67c5.63,9.76-118.15,65.77-116,69.42,2.63,4.56,111.56-64.41,111.56-64.41,5.85,10.13-118.2,55-111.44,66.74.33.57,99.17-71.47,105.32-60.81,0,0-105.68,61.75-104.88,63.14,0,0,100.13-67.39,104.28-60.21,4.9,8.49-105.13,63-105.13,63,5.65,9.78,99.39-70.71,105.16-60.71S71.4,264,71.4,264s30-22.51,32.28-18.63c1.06,1.84-32.19,20.19-31.93,20.64s30.14-21.32,31.84-18.38c0,0-30.68,20-30.43,20.41,0,0,30.18-20.79,31.63-18.26.19.33-31.29,15.78-29.27,19.29.69,1.2,27.2-19.15,28.69-16.56,0,0-29.09,16.86-28.13,18.51.62,1.08,28.23-17.24,28.64-16.53.27.46-27.6,15.08-26.37,17.23l26.47-15.28S77,271.39,78.57,274c.16.28,24.86-18.12,26.5-15.3.82,1.42-25.57,15.26-24.81,16.59s25.32-17.54,26.59-15.35-24.78,15.84-24.48,16.37,25.3-16,25.9-15c1.45,2.51-25.57,14.1-24.07,16.7,1.68,2.91,24.7-15.88,25.4-14.67L85.23,280.14c.07.12,25.84-15.57,26.12-15.08,1.15,2-23.07,13-21.86,15.12s23.77-14.5,24.11-13.92c1.35,2.34-20.32,14-20.32,14s21.19-14.62,22.22-12.83c1.39,2.4-20.07,12.86-19.77,13.39.41.72,20.24-13.69,21.11-12.19,0,0-18.19,10.69-17.24,12.33.21.36,17.41-11.45,18-10.4,0,.09-12.66,9.89-12.66,9.89l14.54-8.39c.68,1.19-11.54,7.84-11,8.86,0,0,12.88-8.35,13.28-7.67.89,1.54-12,8.81-11.86,9s11.87-8.62,12.63-7.29-11.78,7.76-11,9.09c0,0,12.32-7.42,12.45-7.19.63,1.08-10.7,8-10.37,8.53,0,0,11.23-8.19,12-6.91,0,0-10,7.66-9.73,8L127.3,280c.51.87-9.48,8.1-9.47,8.12.31.53,10.44-7.8,11.21-6.47,0,0-9.35,6.77-8.76,7.79.35.6,10.22-5.9,10.22-5.9.1.17-8.44,7.64-8.44,7.64s10.69-6.41,10.79-6.23c0,0-10.14,7.59-10.13,7.61.18.31,12.34-7.61,12.55-7.25.42.73-11.6,8.05-11.37,8.45.65,1.12,12.48-9.34,13.4-7.74l-11,8.64c.32.55,15.37-9.58,15.68-9.05.45.78-14.66,10.34-14.66,10.34.35.61,18.29-11.26,18.59-10.73.48.83-18.06,10.5-17.31,11.81,0,0,18.52-12.94,19.5-11.26C148.36,286.16,131,298,131,298s21.09-14.17,22-12.68c0,0-23.23,12.7-22.07,14.72.63,1.09,24-17,25.37-14.65,1.55,2.68-26.33,17-25.92,17.65.15.27,27.71-20,29.46-17,.69,1.2-30.45,16.24-28.89,18.93,0,0,32-20.34,32.81-18.94s-32.82,21.08-32.75,21.21,36.75-23.25,37.63-21.73-37.85,23.68-37.85,23.68c2.34,4.06,41.25-24.23,41.43-23.92,2.86,5-42.37,23.38-41.08,25.61l43.65-25.2s-44.1,25.94-43.14,27.6c.3.52,45.66-30.14,47.3-27.31,1.13,2-47.22,29.11-47.22,29.11.54.94,49.46-31.82,50.87-29.37,3.24,5.61-53.52,29.39-51.89,32.2,1,1.74,53.33-37.21,56.11-32.39,2.38,4.13-56.63,34.07-56.25,34.73,3.5,6.06,56.6-41.79,60.55-35,0,0-63.14,29.62-59.26,36.35,2.72,4.71,57.62-40.94,60.94-35.18L131,324.34s57.86-43,62-35.8c2.6,4.51-63.27,35.45-62,37.73.52.89,62.12-35.93,62.15-35.88,4.32,7.48-65,32.86-62,38.08,4.29,7.43,63.1-40.28,64.76-37.39,2.23,3.86-67.25,36.2-64.86,40.33,4.45,7.71,66.83-44.2,69.26-40,.88,1.53-69.49,42.2-69.19,42.71,1.71,3,70.58-50.8,74.93-43.26,5,8.63-78.26,41.84-75.59,46.46,4,6.94,77.15-51.42,80.12-46.26.07.13-80.88,44.13-78.82,47.71,5,8.6,81.25-49.55,82.39-47.57l-80,48.86c.6,1,79.78-49.67,81.34-47,0,0-86,39.34-80.62,48.65,3.71,6.43,79-51.52,81.58-47.1.58,1-79.31,47.67-79.31,47.67,2.52,4.36,80.36-46.4,80.36-46.4,3.3,5.72-82.73,43.57-80.15,48,.19.33,79.93-47.41,80.48-46.46,3.26,5.64-83.69,39.54-78.67,48.23.94,1.63,76.62-52.84,80.35-46.39,0,0-80.33,45.2-78.83,47.8l80.54-46.5c.77,1.34-82.38,42.47-79.27,47.87.36.62,78.48-50.36,80.67-46.57,1.85,3.21-78.19,47.53-78.19,47.53s78.58-47.09,79.33-45.8c5,8.63-79.22,44.68-77.89,47,3.18,5.5,75.9-50.66,78.87-45.53.48.84-79.71,45.24-78.28,47.7,5.33,9.24,79.2-46.08,79.35-45.81,1.42,2.46-82.24,38.35-77.14,47.19.9,1.56,74.23-52.41,78.36-45.24l-76.4,46c1.58,2.74,72.5-53.32,77.46-44.72,2.35,4.07-80.71,40-76.8,46.73.18.31,79.25-45.75,79.25-45.75,3,5.18-79.66,41.66-76.69,46.8,0,0,72.29-51.81,76.65-44.25,0,0-79.11,41.28-76.19,46.34.6,1,78.22-45.16,78.22-45.16.88,1.52-80.73,37.22-75.69,45.94,2.08,3.61,76.65-45.65,77.25-44.6,2.13,3.68-77,46.71-77,46.71.69,1.2,77.94-45,77.94-45,4.42,7.66-76.66,43.18-75.41,45.34,2.15,3.72,76.8-44.34,76.8-44.34,4,6.94-74.8,46-74.8,46s75.24-47.89,77.16-44.55c2.75,4.76-76.36,46.15-76.36,46.15s79.43-47.33,80.07-46.23c0,0-84.92,38.29-79.44,47.79,0,0,78.12-55.34,82.55-47.66,1.72,3-82.59,45.65-80.87,48.64,3.91,6.77,82-51.16,83.63-48.28,2.91,5-85.29,47.64-83.69,50.41C168.47,377.76,252,321,252,321c2.82,4.89-92.22,42-86.35,52.14,0,0,86.65-57.1,89.72-51.8,5.33,9.23-95.3,44.46-89.92,53.78,5.2,9,89.13-53.9,90.19-52.07.55,1-90.24,54.89-90.24,54.89,2.21,3.83,87.24-56.42,89.86-51.88l-90,54.85c3.51,6.08,90.1-52.71,90.4-52.19,4.78,8.29-92.95,49.53-90,54.71,3.92,6.79,85.77-58.55,89.68-51.78.69,1.2-89.29,53.76-89.29,53.76s87.61-54.13,89.15-51.47c5.58,9.66-91.09,50.6-89.43,53.48,2.47,4.27,88.93-51.34,88.93-51.34s-91.08,51.81-89.5,54.53c4.6,8,84.19-61.18,89.64-51.75,5.16,8.94-91,50.16-89.12,53.45,5.44,9.41,83.89-62.7,90.07-52,1.24,2.14-93.2,50.17-90.62,54.64,1.47,2.54,85.65-59.65,90.06-52,0,0-91.16,52-89.85,54.31l89.44-51.64c.43.75-91.59,50.1-89.31,54l89.12-51.45c5.61,9.71-93.33,46.2-88.86,53.94.81,1.41,87.45-54.31,89.1-51.44,3.82,6.62-94.06,45.05-88.85,54.07,2.27,3.93,89.76-51.82,89.76-51.82l-91,54.79c2.88,5,84.6-61.53,90.09-52,4.64,8-95.22,43.44-89.13,54L255.22,358c1.16,2-90.36,52.36-89.5,53.84,1.43,2.48,84.84-61.71,90.35-52.17,5.14,8.9-95.17,46.43-90.38,54.73,3.17,5.48,68.13-39.33,68.13-39.33s-71.1,35.17-67.66,41.14c.16.28,66.41-38.34,66.41-38.34,2.4,4.16-70.77,34.42-66.83,41.24,1.92,3.33,59.37-44.1,63.62-36.73,3.51,6.08-65.71,37.52-64.31,39.94,0,0,60-36.41,60.76-35.08.93,1.61-62.27,33.64-60.5,36.71.75,1.29,58.18-39.58,60.77-35.08,1.15,2-64.18,32-61,37.44,1.57,2.72,61.71-35.76,61.76-35.66s-64.75,31.9-61.61,37.32l61.07-35.26c3.09,5.35-63.82,31.61-60.48,37.39,3.81,6.6,60.89-35.16,60.89-35.16s-62.44,34.32-60.86,37,59-38.59,60.94-35.19l-61,37.8c.41.72,61.27-35.37,61.27-35.37l-60.92,38c1.77,3.06,56.36-40.62,59.86-34.56,2.55,4.41-64.27,30-60.24,37,3.86,6.69,59.39-38.93,61.4-35.45.57,1-65.86,30.58-61.77,37.65,1.16,2,61.16-35.31,61.16-35.31,2.42,4.2-61.76,38.06-61.76,38.06,2.17,3.77,60.3-38.47,61.89-35.73L165.33,447c.33.57,61.77-35.66,61.77-35.66,1.19,2.06-61.57,33-59.45,36.69.86,1.49,59.56-34.39,59.56-34.39L169.1,449.61s55.56-36.14,57.32-33.09c.77,1.33-56,35-56,35,2.21,3.83,46-26.54,46-26.54.11.18-46.87,25.36-45.2,28.26.14.24,29.6-18.86,30.37-17.53,2,3.5-30.17,16.64-29,18.62,0,0,24.3-15.22,24.82-14.33,0,0-23.39,14.83-23,15.57,1,1.77,22.08-14.57,22.86-13.2,1.13,2-21.59,13.39-21.22,14,0,0,21.2-14,21.94-12.67.12.21-22.19,12.11-20.71,14.68.58,1,20.29-12.1,20.46-11.81,0,0-19.2,12.41-19,12.84,1.11,1.92,19.14-11,19.14-11L179.53,461c1.15,2,17.89-11.44,18.37-10.61,0,0-16.32,11-16.21,11.21s14.6-10.62,15.55-9c.09.15-13.81,10.41-13.67,10.65l14.85-8.57c.67,1.16-13.13,9.29-13,9.53l12.91-7.45c.56,1-12,7.64-11.27,8.88,0,0,10-6.34,10.23-5.91.42.73-10.76,6.48-10,7.77.28.49,10.89-6.74,11.09-6.4,0,0-9.71,7.14-9.13,8.15.05.09,7.7-4.45,7.7-4.45s-6.06,5.28-5.85,5.64,6.52-3.76,6.52-3.76c.15.26-4.28,5.06-4.24,5.13s4.62-3,4.74-2.74-4,4.43-4,4.43,4.19-2.42,4.19-2.42c.13.23-2.18,3.36-2.12,3.47s1.06-.89,1.18-.68-.18,1.69-.11,1.8a5.58,5.58,0,0,0,.88-.51" fill="none" stroke="#00286f" stroke-linecap="round" stroke-linejoin="round" stroke-width="0.7"/><path d="M159.08,141.44a7.07,7.07,0,0,0,.82-.47c.05.09-.8,2.38-.74,2.48s4.82-2.78,4.82-2.78c.3.51-4.66,4.34-4.26,5s7.36-5.09,7.73-4.46c.57,1-8.64,6.87-8.25,7.53S172.58,141,172.58,141c.67,1.16-13.86,8.56-13,10.08,0,0,17.23-10.72,17.56-10.14.64,1.11-18.35,12-18.08,12.48,1,1.79,19.65-11.34,19.65-11.34,1,1.8-19.66,13.82-19.66,13.82.46.8,19.08-12.07,19.54-11.28,0,0-18.58,11.75-18.23,12.36,1,1.8,19.49-13.25,20.36-11.75.17.3-21,14.71-21,14.71.17.3,25.48-17.08,26.5-15.3,1.71,3-27.66,15-26.42,17.11.67,1.16,29.07-16.78,29.07-16.78.51.88-29.52,16.88-28.39,18.85,1.83,3.17,31.75-21,32.92-19,.6,1-34.21,22.39-34.21,22.39,1.5,2.61,39.13-22.59,39.13-22.59s-39.21,24.2-39.11,24.37c1.93,3.34,39.13-22.59,39.13-22.59,1.27,2.2-38.26,23.83-38.26,23.83,2.24,3.89,39.11-22.58,39.11-22.58,1.77,3.07-39.3,24.13-39,24.71,2.06,3.56,36.42-24.57,38-21.92,2.68,4.64-39.65,23.17-38.77,24.7,1.58,2.73,39.24-22.93,39.36-22.73" fill="none" stroke="#00286f" stroke-linecap="round" stroke-linejoin="round" stroke-width="0.7"/><path d="M120.76,138.69s19-11.95,19.39-11.2c1,1.71-17.58,10.41-16.91,11.57.79,1.37,17.35-11.21,17.87-10.32.68,1.18-14.89,11.08-14.89,11.08.95,1.64,16.08-9.82,16.31-9.42.51.88-12.52,9.77-12.52,9.77s11.18-7.09,11.46-6.62c.37.65-8.44,6.67-8.44,6.67.45.78,7.65-5,7.9-4.56s-5.05,5.25-4.93,5.46a9.93,9.93,0,0,0,1.57-.9" fill="none" stroke="#00286f" stroke-linecap="round" stroke-linejoin="round" stroke-width="0.7"/><path d="M135.56,119.45c0,.08,22.62-15.06,23.49-13.56,0,0-17.78,10.89-16.88,12.46l17.16-9.91c.45.78-12.82,9.24-12.58,9.66l11.47-6.62c.13.22-7.84,6.4-7.65,6.73.34.59,6.05-4.47,6.47-3.74a24.32,24.32,0,0,1-1.76,3.16c.12.2,1.88-1.34,2-1.15" fill="none" stroke="#00286f" stroke-linecap="round" stroke-linejoin="round" stroke-width="0.7"/><path d="M89,102.67a15.13,15.13,0,0,1,1.39-.8c.22.38-7.43,5.58-6.92,6.46.07.12,9.61-6,9.8-5.66.34.59-14.39,9.32-13.82,10.3,0,0,17.18-12.11,18.13-10.47,0,0-22.95,12.27-21.62,14.57.4.69,24.57-14.63,24.76-14.3.77,1.34-28,18.68-28,18.68,1.55,2.69,30.24-22.65,32.49-18.76.46.79-36.63,21.5-35.67,23.17,2.05,3.55,38.51-25.66,40-23.09,1.84,3.18-45.69,24.49-44,27.35,2.18,3.78,45.71-30.68,47.57-27.46,2.78,4.82-50.35,28-48.94,30.45.35.61,52.84-30.79,53-30.58,2.09,3.62-55.71,32.58-55.1,33.65,1.86,3.22,54.93-38.16,57.72-33.32.85,1.47-62.39,33.49-60.22,37.25,1.38,2.4,62.88-41.58,65.16-37.62.35.61-72.91,34.2-68.36,42.08,1.92,3.33,69.1-49.6,73.3-42.32,0,0-77,45.29-76.13,46.74,1.16,2,76.78-51.9,80.06-46.22.07.12-85.15,42.71-81.17,49.59,3.23,5.6,84.72-51.06,85.65-49.45,5.27,9.12-88.25,53.8-88.25,53.8.27.47,89.51-61.48,93.75-54.13,0,0-96.69,55.91-95.76,57.53.73,1.26,98.62-57.69,98.94-57.13,4.94,8.55-107.28,48.54-100.66,60,0,0,98.47-70.09,104.2-60.16,6.56,11.37-105.7,61-104.51,63,.56,1,105.51-70,109.44-63.19,0,0-113,63.78-111.54,66.27,0,0,109.62-74.75,114.58-66.15.6,1-115.61,67.64-115.15,68.42C44.67,174,156.8,99.06,159.62,103.93c.68,1.17-117.85,70.52-117.85,70.52,1.9,3.3,91.86-59.86,94.81-54.74,0,0-97.94,57-97.16,58.36l96.81-55.9c2.83,4.89-97,58.72-97,58.72,3.09,5.35,98.74-57,98.74-57,1.11,1.93-99.4,59.47-99.4,59.47,6.81,11.79,94.09-67.77,99.91-57.68,5.16,8.94-100.83,61-100.83,61l82.48-47.62c2.19,3.8-84,47.43-82.49,50,0,0,83.57-50.8,84.67-48.89.24.41-87,47.18-84.56,51.36l85-49.05s-89.67,42.73-84.9,51c2.25,3.9,85.73-51.16,86.45-49.91,3,5.13-91.21,41.93-85.8,51.3,5,8.71,80.89-59.66,86.5-49.94,1.4,2.43-91.08,46.49-87.21,53.19,0,0,83.44-59.15,88.19-50.92,2.77,4.8-94.15,43.89-88.39,53.86s89.84-51.87,89.84-51.87c3.75,6.49-88.69,53.26-88.69,53.26,5.78,10,84.67-62.19,90.43-52.21,1,1.7-91.87,50.88-90.09,54,.16.28,88.68-54.78,90.23-52.1,3.68,6.38-92.47,50.62-90.42,54.17,4.37,7.57,92.27-53.65,92.43-53.37C137.1,163,34.18,200.75,38.71,208.6c3,5.19,88.55-64.34,94.27-54.43,2.33,4-98.42,51.37-95.3,56.78,4.08,7.07,96.2-55.54,96.2-55.54,6.39,11.07-100.2,49.69-95.49,57.84,3,5.14,97.2-60,98.87-57.08,5.43,9.4-101.28,57.51-99.68,60.27,0,0,100.22-60.08,101.18-58.42,1.06,1.84-105.29,51.66-100.33,60.25,1.15,2,97.57-66.62,102-58.9C147,170.67,33.53,210.79,39,220.3c0,0,103.47-60.07,103.62-59.82,4.89,8.48-106.51,58.12-103.85,62.72,5.61,9.71,101.18-68.41,105.5-60.91,5.82,10.08-111.14,54.17-105.82,63.4,4.13,7.16,100.85-73.4,107.42-62,0,0-108.12,53.41-103,62.25,3.74,6.48,104.36-60.25,104.36-60.25.34.59-104.35,59.88-103.29,61.72,4.21,7.28,104.44-60.3,104.44-60.3,2.3,4-108.5,53.73-103.6,62.23,6,10.35,102.18-63.57,104.17-60.14.78,1.36-107.83,56.77-104.4,62.72S147,165.78,150.05,171c4.64,8-104.36,62.35-104.36,62.35,1.35,2.34,99.1-69.6,104.46-60.31C151.73,175.76,46.3,235,46.3,235c6.1,10.57,104.2-61.83,104.92-60.58,5.69,9.85-104.82,60.31-103.9,61.91,6.8,11.78,100.39-69.62,105.44-60.88,3.84,6.65-109.94,55-105.49,62.66,2.56,4.43,98.84-72,105.31-60.8,3.41,5.91-105.13,63.37-105.13,63.37,3,5.2,145.48-95.62,150.52-86.9.71,1.23-150.5,88.48-150.4,88.67,0,0,144-98.39,150.58-86.94,2.13,3.69-154.86,80.2-150,88.6,3.56,6.16,150.66-87,150.66-87,10,17.32-154.25,81.74-150.05,89,.69,1.2,11-6.6,11.12-6.42.84,1.45-10.83,9-10.83,9s10.59-6.57,10.78-6.23c.06.1-9.59,6.78-9.1,7.62.26.46,7.5-5.42,8-4.61s-7.61,6.41-7.61,6.41c.43.75,7.12-5.34,7.65-4.42,0,0-6.8,5.78-6.38,6.5.23.39,8.57-5.81,8.94-5.16.14.24-6.74,6.16-6.52,6.54s7.77-4.5,7.77-4.49c.22.39-6.93,5.59-6.71,6,.4.69,6.55-4.78,7-4,.27.47-7.59,5.51-7.19,6.21l6.56-3.79c.3.51-4.46,4.64-4.35,4.83,0,0,4.8-3.22,5-2.88.33.57-4.52,4.31-4.42,4.48,0,0,4.83-3.42,5.1-2.95.05.09-4.55,3.79-4.29,4.24.08.13,4.05-2.34,4.05-2.34s-2.17,3.6-2,3.85l2-1.16a18.31,18.31,0,0,1-.65,2.81s.91-.55.92-.53" fill="none" stroke="#00286f" stroke-linecap="round" stroke-linejoin="round" stroke-width="0.7"/><path d="M165.69,57.72c.48.83,16.7-12.3,17.86-10.31.83,1.44-13,9.75-13,9.75.5.86,13.21-9.61,14.07-8.12.16.28-11.68,7.35-11,8.57.14.23,10.51-6.66,10.77-6.22.49.84-6.91,5.79-6.88,5.83s3.67-2.45,3.81-2.2" fill="none" stroke="#00286f" stroke-linecap="round" stroke-linejoin="round" stroke-width="0.7"/><path d="M149.6,65.65C151,68,183.49,46.09,183.49,46.09l-29.66,19.1c.79,1.37,11.93-7.07,12-6.93s-8.6,7.12-8.6,7.12c.25.43,9.34-5.39,9.34-5.39.38.66-8.4,6.75-8,7.42s8.15-4.71,8.15-4.71c.13.22-9.12,7.12-9,7.27.23.41,8.22-4.87,8.27-4.78s-7.18,6.05-6.9,6.54,7.64-4.45,7.66-4.42-9.09,8-9.09,8,9.68-6,9.83-5.68c0,0-9,7.89-8.92,8s12.41-9.3,13.33-7.7c0,0-13.32,9.51-13,10,.86,1.49,17.52-11,17.91-10.34.81,1.4-17.73,12.75-17.73,12.75.44.76,20.76-15.08,22.1-12.76.68,1.18-23.85,15.25-23.31,16.18,1,1.77,26.27-15.89,26.58-15.35,1.18,2-23.12,13.1-21.76,15.45.8,1.38,26.63-18.08,27.8-16.05L165.48,86c.79,1.37,27.26-15.74,27.26-15.74.36.63-23.27,15.86-23.27,15.86,1.35,2.34,23.28-13.44,23.28-13.44.26.44-20.17,13.39-19.95,13.78s20.6-11.89,20.6-11.89c.77,1.33-20.4,13.69-20.36,13.74,1.21,2.09,18.27-13.34,19.48-11.25L173.18,91S192,78.87,192.53,79.86c.77,1.34-20.31,13.84-20.25,13.94s20.33-12.28,20.57-11.87c.06.11-21.56,13.43-20.91,14.56,0,0,20.53-14,21.47-12.4.33.58-21.64,13-20.78,14.47,0,0,19.06-11.74,19.38-11.19,1.14,2-20.57,12.61-19.66,14.19.16.28,18.82-12.87,19.69-11.37,1.34,2.31-19.75,13.19-19.75,13.19.83,1.44,20.53-11.85,20.53-11.85l-20.17,13.94S192.46,92.72,193,93.71c.71,1.23-20,13.67-19.89,13.79.6,1,19.69-12.38,20.12-11.62.32.56-21.41,14.69-21.4,14.7,1,1.73,19.9-12.1,20.17-11.64.37.65-20.18,11.26-19.11,13.11.92,1.6,18.21-12.57,19.1-11,.54.93-20.08,14.16-20.08,14.16.59,1,20.85-12,20.85-12,.34.59-21,13.08-20.53,13.89.71,1.23,19.13-12.62,19.81-11.44,1.42,2.46-20.24,13-19.76,13.8C173,120.55,192,108,192,108c1.37,2.38-20.17,14-20.17,14s20.59-11.89,20.59-11.89c.6,1-20.29,13.7-20.29,13.7.85,1.47,18.75-13.9,20.08-11.59.68,1.18-19.34,13.88-19.34,13.88s19.21-14.2,20.55-11.87c0,0-21.32,13.57-20.89,14.31.67,1.16,20-12.37,20.32-11.73.17.29-16.54,11-16.26,11.51.85,1.48,15.46-10.55,16.17-9.33.16.28-11.63,7.82-11,8.84s10.34-6,10.34-6c.46.79-7.34,6.36-7.34,6.36.24.41,8.62-5,8.62-5s-3.59,4.41-3.43,4.68c0,0,3-1.79,3-1.74" fill="none" stroke="#00286f" stroke-linecap="round" stroke-linejoin="round" stroke-width="0.7"/><path d="M132.06,68.59c.64,1.11,11.08-6.51,11.13-6.43.9,1.56-28.74,19.05-28.56,19.37,0,0,50.8-35,53.27-30.75,0,0-52.23,31.36-51.85,32,2.51,4.35,57.8-41.89,61.49-35.5,1.08,1.87-59.41,36.86-59.41,36.86.2.34,30.69-19.84,31.61-18.25.19.33-31.42,19.35-30.9,20.25.66,1.15,30.52-19.23,31.22-18,0,0-28.62,16-27.54,17.86,1.23,2.12,27.14-15.67,27.14-15.67.81,1.4-24.17,16.48-24.17,16.48,1.57,2.73,22-15.6,23.26-13.43.35.61-18.74,11.68-18,12.94,1.05,1.82,17.7-12.64,18.75-10.82S134.72,85.37,135.11,86c.8,1.38,12.42-9,13.2-7.62.61,1.05-9.89,7-9.63,7.51.12.2,5.47-3.16,5.47-3.16" fill="none" stroke="#00286f" stroke-linecap="round" stroke-linejoin="round" stroke-width="0.7"/><path d="M144.8,45.28c4.91,8.51,71.3-44.36,72.68-42,3.12,5.4-50,29.36-49,31,1.23,2.13,55.8-32.21,55.8-32.21s-48.35,26.84-47,29.14c2.8,4.84,49.37-32.27,51-29.45,0,0-41.47,24.12-40.54,25.73,3,5.17,42.9-31.94,46-26.56,0,0-38.28,22.72-37.35,24.33.59,1,41-27.53,42.7-24.65,0,0-36,19.89-34.54,22.46,1.72,3,37-27,39.48-22.79,2,3.5-33.21,20.74-32.87,21.32C212.8,24.53,248,.31,248,.31,249.17,2.41,216,21,216,21c.42.72,34.86-23.76,36.43-21,1.46,2.53-31.82,18.18-30.87,19.82,2.28,3.94,34.56-20,34.56-20s-31.91,17.14-30.25,20C226.51,21,259.7.36,259.7.36c1.39,2.4-26.16,17.94-26.16,17.94,1.6,2.77,28.74-20.86,30.59-17.66.26.45-28.29,17.23-27.89,17.93,1.33,2.31,30.87-20.91,32.21-18.6s-28.72,17.49-28.23,18.34c.63,1.09,29.31-21.05,31.1-18s-27.21,17.71-27.21,17.71C244.76,19.18,273.06-.25,273.75,1c1,1.69-26.13,16.66-25.82,17.19S276.25-1.36,277.61,1c.61,1.06-25.73,15.13-24.95,16.49,1.38,2.39,25.79-19.07,27.6-15.93.63,1.09-25,13.55-23.83,15.61,0,0,27.22-17,27.79-16L259.91,17.79C261.68,20.86,287.16,2,287.16,2s-25.25,13.32-23.9,15.67c1.19,2.07,26.24-15.15,26.24-15.15.58,1-22.38,15.23-22.3,15.36C268.09,19.47,293,3,293,3c.71,1.23-21.69,14.79-21.69,14.79.81,1.4,25.5-15.32,25.76-14.87s-24,12.29-22.46,15C275.89,20.15,297.2,1.38,298.73,4c1.26,2.19-20.85,14.55-20.85,14.55L302.5,4.36c.38.67-21.72,13.88-21.52,14.23,1.68,2.91,22.32-16,23.69-13.68.05.09-21.43,14.66-21.43,14.66.43.75,23.83-14.48,24.14-13.94.73,1.26-19.77,14.19-19.77,14.19S311.4,5.42,311.69,5.92c0,0-21.83,14.38-21.74,14.54.74,1.29,22.1-16.31,23.64-13.65L293.1,20.94c.27.47,23.63-13.77,23.68-13.67.6,1-20.34,13.58-20.29,13.66S319.16,6.85,319.59,7.6c.13.22-21.2,14.21-21.2,14.21.76,1.32,21.49-15.56,22.85-13.19.3.52-20.51,11-19.31,13.07.44.77,20.48-15.31,22-12.7,1.13,2-19.37,13.51-19.37,13.51.11.18,21.73-13.72,22.24-12.84s-20,13.27-19.63,13.87c.47.81,21.57-14.26,22.35-12.91,1,1.7-19,13-19,13S331.1,10.3,331.72,11.38c0,.06-20.35,10.81-19.07,13s21.92-12.65,21.92-12.65c.86,1.49-19.92,12.34-19.12,13.73.63,1.1,21-13.93,21.8-12.58.1.17-19.36,11.71-18.43,13.32,0,0,20.92-12.56,21.13-12.2.43.75-18.37,12.15-18.29,12.3s19.28-11.13,19.28-11.13-16.12,12.14-16.12,12.14c.64,1.12,19-12.21,19.53-11.28.39.68-19.48,10.56-18.29,12.61,0,0,19-13.85,20.26-11.7,0,0-16.48,11.17-16,12,1.13,2,19.06-11.6,19.32-11.15.71,1.22-18.53,10.84-17.47,12.66,0,0,19.23-11.49,19.4-11.2,0,0-18,11.07-17.49,12,0,0,18.71-12.64,19.5-11.26.91,1.57-16.24,10.56-15.51,11.82L357.59,20.5c1,1.68-19.24,11.08-18.27,12.76,1.16,2,20.51-11.84,20.51-11.84,1.21,2.1-18.31,11.23-17.76,12.2C342.9,35,360.47,23,360.47,23c.11.19-15.23,11.6-15.23,11.6C346,36,363.12,24.27,363.12,24.27s-16.46,10.34-16,11.22l19.28-11.13c.07.12-17.09,10.5-16.16,12.11,1.15,2,17.31-11.46,17.94-10.36,1.2,2.08-17.43,11.06-16.7,12.31.62,1.08,18.38-12,19-11,0,0-16.57,10.83-16.32,11.26C355,40,371,26.43,372.12,28.36S355,38.64,355.58,39.65s18.69-11.74,19.1-11c0,0-17.25,10.47-16.39,12,1.12,1.94,17.08-11.72,17.89-10.33s-16.1,11.53-16.1,11.53c.14.25,18.1-10.45,18.1-10.45.54.94-16.08,11.38-15.94,11.63,0,0,16.79-11.85,17.73-10.23S363.67,42,364.61,43.66c0,0,16.71-11,17.3-10,.33.58-17.08,9.77-16.1,11.47,0,0,17.48-12.28,18.43-10.64,0,0-16,11.18-15.7,11.73.06.11,16.7-12,17.73-10.24.76,1.32-16.55,10-15.63,11.64,0,0,16.52-11.79,17.49-10.1,0,0-15.23,9-14.26,10.67.41.7,16.28-10.88,16.92-9.77.19.32-14.86,10.54-14.66,10.89.4.7,15.29-11.27,16.35-9.44.52.9-15.06,9.53-14.4,10.67,0,0,15.88-10,16.25-9.38.61,1.06-15.81,10.5-15.29,11.4.06.1,16.44-11,17.1-9.87.54.93-15.08,11-15.06,11C382,55.25,398,44,398,44L383.73,54.15l17-9.81c.79,1.37-16,10-15.29,11.16,1.12,1.93,16.26-11.22,17.06-9.85,1.09,1.88-15.86,10.82-15.65,11.17,0,0,15.92-11.63,17-9.8.94,1.63-14.75,10.18-14.45,10.7l15.61-9L390.6,59.15C391,59.77,406.66,49,407,49.66c1.09,1.88-14.82,10.9-14.74,11,0,0,16.45-10.24,16.77-9.68.44.76-13.91,10.53-13.84,10.66.49.85,15.77-10.62,16.42-9.48.86,1.5-16.82,10.2-16,11.69s16-11.8,17.12-9.89c0,0-15.77,9.69-15.17,10.73,0,0,15.41-10.43,16.07-9.28.15.25-14.92,9.65-14.54,10.29,0,0,15.78-9.11,15.78-9.11.78,1.35-14.65,10.73-14.65,10.73.38.67,16.22-9.86,16.43-9.49.81,1.41-13.93,10-13.93,10,.57,1,15.42-10.76,16.23-9.37,0,0-15.63,9.34-14.74,10.9.18.31,15.61-9.83,16-9.22.52.9-14,10-14,10,.78,1.34,15.58-9.37,15.74-9.09,0,0-15,10.29-14.69,10.81S422,61.59,422.84,63c.9,1.57-13.84,9.73-13.84,9.73l15.92-9.19c.72,1.25-14.46,10-14.06,10.68s15.12-9.83,15.6-9l-14.88,11.1c.79,1.37,15.43-9.75,15.8-9.12.89,1.54-13.35,9.48-13.35,9.48s15.53-9,15.53-9c.2.35-14.43,11.07-14.43,11.07s16.11-9.46,16.18-9.34c.67,1.15-14.24,9.54-13.58,10.68.12.21,15.85-9.15,15.85-9.15.43.74-14.72,9.88-14.42,10.42,1,1.72,14.18-9.57,14.78-8.53s-13.79,10-13.47,10.52S436,74,436.16,74.28c0,0-15,9.36-14.16,10.8,0,0,14.46-9.54,15-8.65.13.23-14.63,9-13.73,10.6,0,0,14.52-10.68,15.51-9,.75,1.31-13.26,10.15-13.26,10.15.64,1.11,13.94-9.7,14.65-8.46.42.73-13.6,9.35-13,10.34.12.2,15.64-9,15.64-9,.12.21-14.15,11-14.15,11,.61,1,16-10,16.31-9.42.87,1.52-14.76,10.81-14.76,10.81S445.71,82.58,446.55,84c0,0-16.16,9.94-15.64,10.84s14.22-10.61,15.26-8.81c.56,1-14.63,9.58-14.15,10.41s15.78-9.11,15.78-9.11c.85,1.47-13.28,10.13-13.28,10.13s15.31-9.43,15.57-9c0,0-15.91,9.87-15.18,11.13.84,1.46,14.94-9.91,15.5-8.95.66,1.15-14.3,8.81-13.63,10,.51.89,15-8.89,15.13-8.73.49.84-14.56,10.83-14.56,10.83.49.84,16.3-9.41,16.3-9.41,1,1.75-14.59,10.25-14.59,10.25.16.28,14.25-10.15,15.09-8.71.35.61-14,8.89-13.35,10,.27.47,14.53-10.21,15.32-8.85.61,1.06-14.92,9.15-14,10.66.35.6,14.43-10.41,15.33-8.85.55,1-14,9.41-13.69,10,1.06,1.83,14.57-8.65,14.67-8.47.65,1.12-14.28,8.94-13.45,10.37,0,0,14.7-9.85,15.29-8.83,0,0-16.1,9.91-15.57,10.84l15.77-9.1c.46.79-14.45,9.73-13.83,10.8,1,1.65,14.6-10.35,15.43-8.91,0,0-13.88,10.11-13.84,10.18.49.86,14.85-10.22,15.57-9,1,1.75-14.43,9.58-14.2,10L464.66,107s-14.11,10.19-13.77,10.78c0,0,15.1-9.05,15.25-8.8.86,1.49-16.25,8.71-15.2,10.54.07.11,14.5-9.82,15.13-8.73s-13.61,9.95-13.31,10.47c.09.15,14.75-8.92,14.93-8.62.09.15-13.87,9-13.44,9.76.33.56,14.1-8.9,14.43-8.33.87,1.51-13.82,9.07-13.19,10.17,0,0,13-9.85,14-8.1.72,1.25-13,9.8-12.83,10.16.32.55,14.4-10.24,15.23-8.8.56,1-16.57,9.4-15.74,10.85.94,1.63,15.91-9.18,15.91-9.18s-15,8.68-13.94,10.45c.5.86,14.49-8.36,14.49-8.36s-13.64,8.66-13.22,9.39,13.44-9.6,14.24-8.22c.38.65-14.9,9.94-14.28,11s15.39-11.29,16.43-9.49c.37.63-15,9.51-14.12,11,.08.14,13.85-10,14.7-8.49.45.77-13.93,9.82-13.53,10.52s15.53-9,15.53-9c1,1.7-14.6,10.26-14.38,10.63s14.56-8.41,14.56-8.41c.7,1.21-14.35,9.78-13.88,10.6s15.48-9.09,15.55-9c1.1,1.9-15.13,11.22-15.13,11.22.19.32,15.41-10.47,16.09-9.29s-15.29,10.2-15,10.68c0,0,15.16-10.62,16-9.22.67,1.16-16.23,8.87-15.18,10.69s14.51-9.48,15-8.65c.71,1.24-13.74,9.09-13.4,9.69s15.14-8.74,15.14-8.74-14.7,9.44-14,10.68c.48.82,14.21-10.17,15.06-8.7,0,0-15.74,10.17-15.37,10.8s15.2-10,15.74-9.09c1.05,1.82-15.63,9.25-14.82,10.66,0,0,15.34-10.43,16-9.25.4.68-15.23,11.59-15.23,11.59.44.77,15.41-11.3,16.45-9.5.29.51-15.43,9.64-14.5,11.26l15.07-8.7s-15.7,9.54-14.8,11.1c.52.9,15.95-9.78,16.2-9.35.89,1.54-16.29,10-15.51,11.41,0,0,15.32-9.27,15.51-9l-13.71,9.74c.21.37,14.33-9.42,14.83-8.56.65,1.13-15,9.72-14.65,10.29,0,0,14.51-9.94,15.19-8.77,0,0-15.09,9.68-14.69,10.38.9,1.55,14.95-10.2,15.63-9s-15.6,10.92-15.6,10.92c.9,1.55,15.38-10.41,16-9.26s-15.21,9.59-14.46,10.89c.12.21,14-10,14.82-8.56.52.9-14.38,10.27-14.34,10.34,1,1.76,14.7-9.78,15.26-8.81,0,0-14.68,9.12-13.93,10.43.93,1.61,14.84-8.57,14.84-8.57.92,1.59-15.46,10.69-15.46,10.69.6,1,15-10.64,15.83-9.14,1,1.69-15.23,10.69-14.94,11.19.42.72,16.2-9.35,16.2-9.35.84,1.45-16.26,9.2-15.28,10.89s15.4-8.89,15.4-8.89c.78,1.35-14.85,11.38-14.85,11.38.89,1.54,15.18-8.76,15.18-8.76s-14.27,10.51-14.12,10.76c0,0,15.93-9.37,16-9.24.35.61-15.27,10.68-15,11.07.78,1.35,14.49-8.37,14.49-8.37.87,1.51-15,8.46-14.18,9.95.49.84,14.3-9.15,14.69-8.48l-14,10.22,15.09-8.71c.71,1.24-15.44,10.4-15,11.23,1,1.73,14.82-10,15.45-8.92,1.12,1.95-15.4,10.66-15.28,10.87.46.8,15.57-9.1,15.62-9s-14.3,9.88-13.92,10.54c.88,1.53,14.09-10.07,14.93-8.62.47.81-14.69,9.55-14.3,10.23,1,1.72,14.73-8.81,14.86-8.58.84,1.46-15.26,10.06-14.59,11.22s14.8-10.78,15.77-9.1c.38.66-16.29,12.22-16.29,12.22s16.67-9.62,16.67-9.62-15.55,11.58-15.55,11.58c1.07,1.85,16.26-10.1,16.56-9.56.71,1.23-17.08,10.74-16.24,12.2.39.68,15.91-9.18,15.91-9.18.76,1.31-15.17,10.49-15.05,10.69s14.86-10.73,15.79-9.12c.15.26-15.14,10.93-15.14,10.93.68,1.18,15.84-9.78,16.11-9.3,0,0-17.58,10.45-16.69,12,.22.39,15.24-11.11,16.24-9.37.8,1.38-15.81,11.77-15.81,11.77.73,1.27,16.89-10.49,17.21-9.94S491.19,215,491.48,215.5c.78,1.36,14.78-10.51,15.63-9,1,1.72-16.64,11.66-16.64,11.66.34.59,16.8-11.42,17.54-10.13s-16.34,10.77-15.9,11.53c.69,1.19,15.58-10,16-9.23.28.48-15.63,11.23-15.57,11.34.27.47,15.51-9,15.51-9,1,1.72-16.73,10.22-16.15,11.24.34.59,15.58-10.33,16.15-9.33.45.77-16,9.49-14.89,11.43.25.43,15.41-10.25,16-9.24,0,0-17,9.88-16.1,11.38.16.27,16-11,16.76-9.68.26.45-17,11.58-16.71,12.16s15.32-11,16.27-9.39c.14.25-16.68,12.08-16.67,12.1,1.13,2,16.26-9.39,16.26-9.39.12.21-15.81,10.35-15.28,11.28.82,1.42,15.42-10.79,16.24-9.38.32.56-17.47,11.44-17.06,12.15s17.54-10.13,17.54-10.13-17.18,12-17,12.39c1.14,2,16.51-10.6,17-9.8,0,0-17.73,10.09-16.68,11.89.31.53,16.25-9.9,16.48-9.51.65,1.13-16.79,11.29-16.59,11.63s17.12-11.85,18-10.38-17.7,11.8-17.5,12.15c1,1.78,17-9.81,17-9.81.21.37-17.26,11.11-16.8,11.91s17.22-9.94,17.22-9.94S493.44,250.38,493.77,251c.05.09,16.59-11.95,17.61-10.17.24.42-18.76,10.93-17.84,12.52,1.08,1.87,17-11.12,17.54-10.13,0,0-17.73,10.65-17.14,11.66.69,1.19,16.19-11.16,17-9.8.42.72-16.19,11.28-16.19,11.28,1,1.78,16.52-11.77,17.49-10.1.76,1.32-18.94,11.79-18.46,12.62.7,1.22,18.08-11.18,18.4-10.62,1,1.66-18.39,10.26-17.16,12.38.81,1.4,16.44-10.16,16.73-9.66.38.66-18.26,11.77-17.81,12.55.28.49,18.14-11.2,18.46-10.66,1.32,2.29-18.95,12.51-18.43,13.41.85,1.47,17.87-11.28,18.29-10.56l-18.72,12.77s18.83-11,18.86-10.89c.28.49-18.18,13-18.14,13s17.08-12.2,18.09-10.44c.61,1.05-19.93,11.08-19,12.77,0,.07,17.72-11.92,18.45-10.65,0,0-18.49,12-18.08,12.7.86,1.48,17.38-11,17.78-10.27C512.74,266.81,494,277.1,494,277.1c.62,1.07,16.55-11.6,17.44-10.07s-17.58,12.2-17.58,12.2L511.57,269l-19.33,13.1L511.6,270.9c.56,1-20.25,12-19.37,13.49.65,1.12,18.5-12.62,19.34-11.17,1.36,2.35-19.93,12.15-19.08,13.63.13.23,18.59-10.73,18.59-10.73.6,1-20,13.13-19.53,14,0,0,18-12.61,19-11,0,0-20,12.76-19.66,13.28.06.11,19.19-11.08,19.19-11.08s-20,10.92-18.74,13.17c.81,1.4,17.92-12.79,19-11,.49.85-20.26,13.46-19.87,14.15,1,1.78,19.07-11.32,19.2-11.09s-20.25,12.2-19.44,13.61,17.84-12.33,18.72-10.81c0,0-20.92,11.85-19.79,13.82,1,1.68,18.95-13.39,20-11.55,1.35,2.34-20,12.92-19.53,13.67.08.15,17.88-12.6,18.87-10.89,0,0-20.57,11.79-19.48,13.68,0,0,19.1-13.69,20.26-11.7.82,1.42-22.09,13.81-21.55,14.74.78,1.35,19.08-12.41,19.68-11.36.81,1.4-20.29,11.91-19.45,13.36.75,1.29,18.79-13.86,20.09-11.6.34.58-22.74,11.92-21.3,14.42.28.49,19.5-12.2,19.91-11.49,1.38,2.39-21.16,13.71-21,14,0,0,21.11-14.08,21.93-12.66.22.38-22,14.65-21.72,15.22,0,0,19.53-14.44,20.9-12.07,0,0-23.24,15.78-23,16.14,1.24,2.16,21.42-14.13,22.18-12.81,1.49,2.58-22,14.6-21.89,14.8,1,1.69,20.29-14.5,21.49-12.41l-23.65,15.58c.72,1.25,21.34-15.49,22.72-13.12,1.1,1.91-23.19,14.27-22.45,15.55,0,0,21.5-13.15,21.82-12.6,0,0-24.92,16-24.39,16.92,0,0,22.29-14.37,22.94-13.24.55.95-23.88,15.59-23.43,16.36s22.65-13.08,22.65-13.08c.3.52-25,13.83-23.6,16.19.8,1.39,23.27-13.43,23.27-13.43l-24.83,16.38,23.22-13.41c.09.15-24.81,14.41-24,15.78,0,0,23.89-14.79,24.32-14,.3.51-26.16,15.59-25.46,16.8.18.31,23.34-16.12,24.49-14.14,1.5,2.6-26.72,15.74-26,17,.12.21,25.14-14.64,25.19-14.55,1.64,2.84-27.12,17.6-27.12,17.6.22.39,25.24-16.55,26.1-15.07,1.69,2.93-27.21,17.42-27,17.83,1.49,2.57,25.75-14.87,25.75-14.87.93,1.61-29.82,17-28.47,19.32l27.18-15.69c.11.19-29.65,18.34-29,19.41.4.69,26-17.3,27-15.6S465,370.52,465.2,370.86c1.23,2.14,26.47-15.28,26.47-15.28,1.34,2.32-29.93,17.92-29.21,19.17,1.75,3,26.71-16.35,27.11-15.65L459.73,378.8c1.44,2.5,29.35-16.94,29.35-16.94,1.23,2.13-31.37,16.46-29.87,19.07,1.74,3,27.1-19.25,28.66-16.55.26.45-32.67,18.09-31.17,20.69,0,0,29.08-18.65,29.89-17.25l-33.15,21.82c.81,1.41,29.54-19.11,30.43-17.57,1.9,3.29-32.93,21.29-32.93,21.29,1.33,2.3,29.73-19.35,30.67-17.71,1.14,2-36.84,18.17-34.48,22.25.56,1,32.24-20.83,33.2-19.17.82,1.41-35.22,22.35-35.22,22.35,2.3,4,32.84-19.9,33.25-19.19,1,1.74-39.06,20.72-37,24.22,1.37,2.37,35-20.21,35-20.21,1.73,3-40.5,21.87-38.9,24.64,1.09,1.89,37.7-21.77,37.7-21.77.72,1.24-45.57,22.43-42.76,27.3.86,1.49,38.49-24.23,39.36-22.73,0,0-44.28,27.88-44.21,28,.83,1.43,41-24,41.14-23.75,0,0-48.5,22.55-45.33,28,0,0,43.37-27.86,44.59-25.74.81,1.4-50,30.61-50,30.61,1.6,2.78,43.46-32,46.46-26.82.17.3-54.16,27.71-51.79,31.81,0,0,48.47-33.54,50.88-29.37,2.87,5-60.21,37.19-60.21,37.19,3.64,6.3,52.77-39.17,56.54-32.64,3.56,6.16-78.33,47.92-78.33,47.92,1.14,2,69.91-49,73.66-42.53" fill="none" stroke="#00286f" stroke-linecap="round" stroke-linejoin="round" stroke-width="0.7"/><path d="M121,38.77S136.48,28.54,137,29.51c.06.1-38.58,22-37.41,24,2.86,5,57.65-38,59.69-34.46,4.57,7.91-70.51,35-67.23,40.73,0,0,76-44.65,76.36-44.09C174,25.26,80.06,57.23,85.08,65.92,88,70.91,177,10,178.23,12.14c0,0-102.37,53.72-99.18,59.23.63,1.1,99.74-71.17,105.62-61C192.33,23.66,69.74,67,74.78,75.76,79.65,84.2,186.41-.82,191.67,8.28c0,0-124.49,66.59-121.27,72.17C73.16,85.24,194-1,198.37,6.56,205.75,19.33,63.64,82.1,65.49,85.3,73.65,99.43,199.93-2.13,204.18,5.22c3.53,6.12-145.74,74.6-140.85,83.07,0,0,140-91,144.38-83.36L58.56,93C61.33,97.82,212.91,1.41,214,3.29,216.47,7.58,48.66,82.54,56.43,96,58,98.69,211.5-6.35,217.05,3.27S54.17,99.18,54.17,99.18c.2.34,59.67-34.45,59.67-34.45s-66.32,36.18-64.22,39.82c.85,1.47,52-30.14,52-30,2.3,4-54.83,34-54.83,34,.15.26,45-30.44,46.93-27.1,2.45,4.24-50.22,29.9-49.62,30.94,2.36,4.08,42.94-28.3,44.46-25.67.84,1.45-48.91,26-46.77,29.71,0,0,39-24.38,39.84-23,1.69,2.93-41.84,26.66-41.84,26.66C40.9,121.95,74.61,94.41,77,98.6c.81,1.4-40.34,25.52-40.34,25.52,2.18,3.77,34.76-24.86,36.84-21.27,1.82,3.15-41.62,20-38.93,24.62L70,107.05,33.4,130.65c2.05,3.55,32.58-21.83,33.89-19.57.74,1.27-38.48,20.39-36.58,23.68,1.41,2.44,33-19.07,33-19.07,1,1.66-36.9,18.87-34.67,22.74,1.73,3,28.63-20.4,30.3-17.5,1.58,2.73-33.26,21.82-33.26,21.82s30.83-19.83,31.71-18.31c1.87,3.23-34.93,17.75-33,21.16,1.26,2.18,28.58-18.35,29.38-17,1.38,2.4-31.85,19.71-31.19,20.85,1.39,2.41,27.85-20,29.54-17.06,0,0-32,17.2-30.62,19.65.6,1,27.41-18.58,28.6-16.51.14.24-30.24,19.29-29.79,20.06.91,1.58,26-18.62,27.57-15.92,0,0-29,18.12-28.77,18.47,0,0,25.78-16.94,26.67-15.4,1.59,2.75-28.2,18.58-28.2,18.58,1.41,2.45,26.21-17.16,27.09-15.64.66,1.15-29.47,16.75-28.34,18.7,1.27,2.2,24.74-17.43,26.1-15.07,1.52,2.63-27,17.55-26.79,17.93S41.38,151.37,42,152.37s-26.86,17.38-26.5,18c1.28,2.22,22.5-15.74,23.69-13.68s-26.38,13.69-24.8,16.42,24.23-14,24.23-14c1.88,3.26-27.91,14.28-26.26,17.14,1,1.72,23.57-14.77,24.07-13.9,1.09,1.88-25.18,15.4-24.53,16.53,1.49,2.59,23.68-13.78,23.73-13.7S11,181,11.33,181.6c0,0,23.11-14.38,23.56-13.6s-24.35,15.64-24.13,16c1.09,1.88,20.87-15,22.16-12.8.63,1.09-25.19,13.15-23.65,15.83.66,1.15,21.93-14.2,22.6-13C32.07,174.32,9,189.27,9,189.27c.92,1.6,21.83-15.49,23.08-13.32,0,0-24.69,13.44-23.52,15.46,1,1.81,22.68-13.1,22.68-13.1.41.71-22.94,15.22-22.94,15.22.34.58,21.47-13.61,22-12.7.11.2-23.74,16.23-23.74,16.23S27.18,183.28,28,184.69L7,199.51C8.21,201.6,27,188,27,188c.34.59-22.16,11.63-20.74,14.09l20-11.54c1.32,2.29-21.69,12.23-20.51,14.28.93,1.62,19.74-13.16,20.51-11.84,0,0-23.27,12.91-21.84,15.38,0,0,20.64-13.74,21.43-12.37.1.17-22.27,14.72-22.27,14.72.3.52,20-14.18,21.18-12.23.09.15-21.75,13.66-21.47,14.14.54.93,20.35-12.21,20.55-11.87.42.72-20.8,14.27-20.59,14.63.51.87,20.57-11.87,20.57-11.87.14.24-21.59,12.71-20.92,13.87s18.82-13.45,19.94-11.51c.56,1-21.09,11-19.77,13.25,1.13,2,18.75-10.83,18.75-10.83s-20,13-19.81,13.4c.6,1,19.79-13.86,20.85-12,.59,1-20.06,14.11-20.06,14.11.31.53,18.42-10.64,18.42-10.64,1.38,2.39-20.66,11.31-19.48,13.35.73,1.27,19.06-11.11,19.11-11,.79,1.36-19.74,13.26-19.74,13.26s18.4-12.85,19.36-11.18c.17.3-20.71,11.91-19.66,13.73.67,1.17,18.86-12,19.35-11.17,0,0-20.84,11.55-19.64,13.63,0,0,18.77-13.32,19.85-11.46,0,0-19.89,12-19.09,13.38,0,0,18.26-10.71,18.33-10.58C20.13,226,0,238.36.34,238.89c0,0,17.7-11.6,18.3-10.57C19.88,230.45-1,240.2-.12,241.69c.58,1,19-11,19-11S.33,243.11.54,243.48c.56,1,17.59-11,18-10.38,0,0-18.5,11.06-17.59,12.62.4.69,18.1-10.89,18.29-10.56,0,0-18.35,12.32-18.27,12.45,1.22,2.11,17.72-10.44,17.81-10.28.7,1.22-18.59,12-18.31,12.53.76,1.32,16.47-12.37,17.71-10.22,0,0-18.84,12.47-18.48,13.08.25.43,17.37-10.9,17.75-10.25.72,1.24-19,10.66-17.83,12.71,0,0,17.55-12.07,18.39-10.62.34.58-19.05,10.12-17.76,12.37.39.67,16.41-11.45,17.27-10,.57,1-17.06,11.66-17.06,11.66s17.4-10.51,17.6-10.16c0,0-18.94,11.3-18.19,12.59l17.63-10.18C18.09,251.93.21,262.5.49,263c0,0,17.89-10.55,18-10.38.4.69-18.46,12.62-18.46,12.62.63,1.09,18.2-10.9,18.37-10.61.85,1.47-19.07,12.31-18.57,13.17L17.5,257.59C18.58,259.47-.22,267.88,1,270c.92,1.59,15.72-10.12,16.17-9.34C18.06,262.2,1,271.94,1,271.94S17.39,260,18.44,261.86c0,0-18.09,11.51-17.45,12.61.3.52,16.32-9.73,16.46-9.5C18.55,266.88-.14,275.2.66,276.59c.45.78,16.33-11.68,17.31-10,.74,1.28-16.21,11.26-16,11.53,1.13,2,14.44-10.6,15.42-8.9S-.15,278.66.89,280.46c.89,1.54,15.47-11.28,16.49-9.52.1.17-17.12,10.15-16.39,11.42l17.76-10.25C19.68,273.72.94,283,1.83,284.49c.23.41,16.67-11.22,17.36-10,.25.43-17.47,10.61-16.5,12.3s15.29-9.18,15.44-8.91c.65,1.13-15.69,10.08-15.33,10.71.75,1.31,14.88-11.07,16-9.21,0,0-17.08,9.78-16.16,11.38.14.24,16.22-9.81,16.41-9.48.39.68-17.11,11.69-17,11.9.32.56,16.34-11.42,17.2-9.93.59,1-17,9.94-16.28,11.16C3.84,296,19.5,283.67,20,284.52S2.86,295.78,3.12,296.24c.47.81,16.44-11,17.11-9.88S3.08,298.14,3.08,298.14s16.8-10,16.94-9.78c1,1.81-16.67,9.35-15.61,11.18.22.38,15.46-10.72,16.24-9.37.91,1.57-18,10.84-17,12.48,0,0,16.25-9.69,16.38-9.46.74,1.27-15.3,10-14.66,11.14C5.75,305,20.85,294,21.46,295c.46.8-18.13,10.36-16.93,12.43.45.78,16.34-11.07,17.05-9.84,0,0-15.79,11.76-15.77,11.81.23.39,16.45-9.5,16.45-9.5.54.93-15.82,11.26-15.61,11.63.1.18,15.33-9.49,15.61-9,.41.71-15.16,10.61-14.83,11.18,0,0,15-10.33,15.71-9.07,1.1,1.9-16.09,9.52-15.17,11.12.22.37,14.36-10.46,15.3-8.83L8.49,318.07c.48.84,15.39-9.21,15.53-9,0,0-17.6,9.38-16.44,11.4,0,.07,15.76-9.23,15.81-9.13L8.91,322.17s14.93-10.59,15.78-9.11C25.08,313.73,9,324,9,324c.49.85,15.22-8.79,15.22-8.79.5.87-14.14,10.77-14.14,10.77s15.11-10.12,15.71-9.07c0,.07-15.44,9.56-14.64,11s15.29-9,15.36-8.87c.6,1-15.23,9.93-14.87,10.56.67,1.16,14.69-10.12,15.4-8.89.34.59-15.52,9.36-14.67,10.83.13.22,14-8.86,14.35-8.28.51.88-14.34,10.15-14.34,10.15,1.08,1.87,15.53-10.22,16.07-9.28.72,1.25-15.22,10.69-14.86,11.32.9,1.56,14.24-9.08,14.61-8.43,1.08,1.87-16,9.73-15.3,10.91.53.91,15.83-9.14,15.83-9.14s-14.59,9-13.95,10.1c.33.58,13.37-10,14.36-8.29.8,1.38-14.37,10.08-14.37,10.08.61,1.05,14.95-10.94,15.95-9.21C30.94,331.79,15.6,343,15.6,343c.24.42,14.59-9.73,15.16-8.75,1,1.69-15.22,9.12-14.48,10.39.2.35,15-9.37,15.33-8.85.39.68-15.69,11.32-15.45,11.74,1,1.68,15.71-9.94,16.09-9.29,0,0-15.71,9.16-15,10.41,0,0,16.22-9.56,16.31-9.41.26.45-14.88,10.46-14.88,10.46.23.39,13.06-9.63,14-8.06.15.26-13.54,10.67-13.54,10.67.15.26,15.21-8.78,15.21-8.78.68,1.18-14.67,9.29-13.8,10.8.47.82,13.58-9.17,14.15-8.17.75,1.3-14.23,8.58-13.62,9.65,0,0,13.83-9.88,14.65-8.46.72,1.24-14.87,9.27-14.06,10.67,0,0,14.34-9.63,14.93-8.62s-14.68,9.66-14,10.88c0,0,14.92-10,15.51-9,.42.72-16.4,9.94-15.38,11.71.53.92,16-10.24,16.45-9.5,1.12,1.94-16.18,9.82-15.37,11.22l16.09-9.29c.08.14-15.6,11.11-15.6,11.11.93,1.61,14.64-10.19,15.39-8.88.28.49-13.81,10.3-13.81,10.3.48.83,14.21-10.26,15.1-8.72.17.29-13.5,9.7-13.4,9.87.6,1,13.11-10,14.16-8.18.12.2-14.65,8.46-13.64,10.22s14.83-9.81,15.37-8.87c0,0-15.12,9.07-14.37,10.37l13.92-8c1,1.71-14.11,8.79-13.36,10.08s15.1-9,15.21-8.78L30.43,376.29c.52.9,14.46-9.08,14.78-8.53,0,0-14.3,8.78-13.61,10,.27.47,14.84-8.57,14.84-8.57.18.3-15.32,9.35-14.44,10.88.12.22,15.09-10.54,15.88-9.17,0,0-14.83,8.89-14.18,10,1,1.78,13.85-8,13.85-8,.23.4-13.33,9.83-13.33,9.83.38.66,14.29-10.3,15.18-8.76.4.7-14.81,8.85-13.79,10.62.57,1,14.33-8.27,14.33-8.27s-14.3,9-13.4,10.51c.37.64,14.71-9.88,15.31-8.84.19.33-13.87,10.31-13.81,10.41s14.18-8.19,14.18-8.19c.95,1.64-13.52,9.74-13.52,9.74.53.92,15-9.61,15.38-8.88s-14.77,11.1-14.77,11.1c.42.73,14.76-8.52,14.76-8.52.62,1.07-15.17,8.71-14.31,10.19,0,0,15.91-10.09,16.3-9.41.8,1.38-14.83,10.77-14.83,10.77s15.18-9,15.29-8.83c.38.67-14.86,9.51-14.46,10.19.68,1.17,13.78-10,14.65-8.46s-14.84,9.17-14.08,10.49c0,0,15.7-10,16.09-9.29,0,0-15.12,10.78-14.81,11.32,1,1.67,15.73-9.34,15.84-9.14,0,0-14.93,8.64-13.92,10.4.35.61,14.28-10.65,15.32-8.85,0,0-14.67,10.78-14.48,11.12.95,1.64,15.29-9.27,15.48-8.94.77,1.34-14.32,10.55-14.32,10.55.53.91,15-10.61,15.83-9.14.26.44-14.34,9.8-14,10.41,1,1.65,13.85-10.22,14.82-8.55s-15,9.1-14,10.93l15.89-9.17S52,409.08,53,410.83c0,0,14.68-9.33,15-8.69.24.41-15.75,9.47-14.82,11.08.26.45,16.21-9.93,16.46-9.5.37.65-15.54,10.32-15,11.34s16.57-9.57,16.57-9.57c.23.4-14.89,8.58-14,10.2,0,0,14.7-8.87,14.87-8.58.59,1-15.76,9.56-15.16,10.6.82,1.43,15.63-10.65,16.33-9.43.32.56-15.24,8.93-14.31,10.55,0,0,15.32-9.7,15.69-9.06.82,1.41-14.51,10.15-14.51,10.15.5.87,14.84-10.67,15.75-9.09.8,1.39-14.65,10.3-14.65,10.3l15.43-8.91c.22.39-13.81,10.09-13.48,10.65,0,0,13.94-9.3,14.48-8.36.36.63-14.18,10.16-13.8,10.83,0,0,15-8.64,15-8.64.59,1-13.6,10.41-13.6,10.41.57,1,15.85-10.06,16.24-9.38.77,1.33-15.55,9.44-14.94,10.48.8,1.39,16-9.22,16-9.22.33.57-14.92,10.09-14.38,11,.37.65,16.08-9.28,16.08-9.28.57,1-15.28,8.75-14.29,10.48.42.72,14.63-8.45,14.63-8.45,1,1.66-14.19,8.49-13.31,10,.33.57,14.86-9.17,15.12-8.73,0,0-13.81,9.34-13.21,10.38s15.25-9,15.35-8.86c1,1.7-14.87,8.65-14,10.17s15.51-9.61,15.79-9.12c.89,1.53-15,9.58-14.33,10.69s15-8.72,15-8.67L78,438.68s15.73-9.39,15.87-9.16c.89,1.54-15.25,9.19-14.51,10.47,0,0,14-9.87,14.81-8.55,0,0-14.38,10-14.23,10.24,0,0,15.17-10.84,16.08-9.28.57,1-14.86,8.37-13.89,10.05,0,0,13.85-9.27,14.4-8.32.35.61-13.27,9-12.77,9.85.79,1.37,14.24-10.4,15.18-8.77,0,0-15.15,10.11-14.49,11.25.8,1.39,16.09-11.21,16.92-9.77s-16.08,9.39-15.11,11.09c0,0,16.66-10.71,17.13-9.89,1,1.81-15,10.81-15,10.94l16.5-9.53L90.3,450.65c1.07,1.86,16.57-9.57,16.57-9.57.19.33-16,9.18-15.15,10.71s15.3-10.53,16-9.26-13.94,10.84-13.94,10.84c.87,1.51,16.25-10.28,16.64-9.61L95.73,454.56c.32.56,14.65-10.53,15.54-9,0,.05-13.91,10.35-13.83,10.49.18.31,15-11.1,16-9.25L99,457.4s16.37-10.18,16.69-9.63c1.16,2-17.14,9.61-16.22,11.21.44.76,16.79-11.92,17.76-10.25.82,1.42-15.7,9.86-14.93,11.19.58,1,16-10.11,16.38-9.46.89,1.54-14.84,10.82-14.77,10.94,1,1.74,16.15-9.32,16.15-9.32,1,1.7-14.83,9.29-14,10.74,0,0,15.32-10,15.81-9.13,0,0-15.18,9.19-14.4,10.55,1,1.65,16.35-9.44,16.35-9.44,1,1.69-15,8.5-13.94,10.26.8,1.39,15.8-9.5,16-9.22.48.83-15,9.79-14.46,10.72s16.8-10.86,17.3-10c0,0-15.43,10.89-15.05,11.55,0,0,15.57-10.25,16.12-9.31l-13.58,10.73c.07.12,16.16-9.55,16.25-9.38l-14.15,10.61s16.07-11.32,17-9.79c.74,1.28-16.13,10-15.24,11.51,0,0,16.3-11.69,17.28-10,.53.91-15.3,10-14.54,11.28,0,0,17.26-10.8,17.62-10.17s-17.55,10.62-16.76,12,17.58-10.4,17.69-10.21l-16,11.32c.12.22,17.55-12.29,18.49-10.67.67,1.16-15.4,10.61-15.16,11,.69,1.2,16.79-11.49,17.57-10.14s-16.44,10.27-15.65,11.63c.36.62,15.84-11.71,17-9.79,0,0-16.81,9.05-15.71,11,.77,1.34,18.45-11.3,18.73-10.82L133.75,481.2c1.05,1.83,18.8-11.3,19-11,0,0-17.77,11.06-17,12.33,1.09,1.88,19.58-11.31,19.58-11.31.46.79-17.13,10.25-16.34,11.62,1.2,2.08,17.41-12.64,18.53-10.7.09.16-17.42,9.79-16.39,11.57.64,1.11,16.59-11.32,17.34-10,1.13,2-17.27,10.78-16.74,11.7.63,1.1,18.05-11.15,18.37-10.61,1,1.79-16,9.65-15.09,11.24.1.18,18.52-10.69,18.52-10.69,1.08,1.88-17.07,11.07-16.62,11.86,1,1.75,18.09-12.75,19.09-11,.33.58-17.64,12.28-17.37,12.74.47.81,19-13.81,20.24-11.68,0,0-16.94,12.47-16.9,12.54,1.15,2,19-11.12,19.07-11l-16.46,11.32c.59,1,18.45-12.19,19.11-11,0,0-19.25,11.78-18.77,12.6,0,0,20.13-12.84,20.66-11.93.83,1.43-18.16,12.52-18.16,12.53s19.72-12.5,20.2-11.66c.09.15-18.52,10.24-17.51,12s18.75-12.41,19.43-11.22c.93,1.61-18.56,11.74-17.89,12.91,1,1.67,19.1-12.78,19.86-11.47,1,1.67-17,10.24-16.13,11.74l18.89-10.91c.76,1.31-18.44,11.22-17.52,12.81l21.5-12.41c.62,1.07-19.72,11.37-18.52,13.45,0,0,20.47-12,20.53-11.85S171.36,496,172.47,497.91c.68,1.18,21.36-12.33,21.36-12.33,1.12,1.93-18.73,12.63-18.73,12.63.5.87,19.13-12.71,19.85-11.46,0,0-19.85,10.43-18.59,12.62.86,1.5,21.64-12.49,21.64-12.49.63,1.09-21,11.77-20,13.53L199.59,488c1,1.68-20.71,11-19.53,13.08.16.27,20.06-14.83,21.46-12.39.58,1-18.66,10.64-17.58,12.51,0,0,20.73-14,21.6-12.47.38.67-20.33,11.92-19.39,13.54.78,1.35,21.17-12.22,21.17-12.22,1.07,1.86-18.89,11.94-18.55,12.53.84,1.45,20.19-15,21.63-12.49,0,0-19.61,12.79-19.2,13.51s21.8-15,22.85-13.19c.56,1-21.46,12.46-20.6,13.94.12.2,21.79-14.85,22.78-13.15.07.12-20.17,13.72-20,14,1.47,2.55,22.07-15.64,23.33-13.47l-20.18,14.42c.51.89,23.3-15,24-13.84.23.4-21.28,14.06-21.28,14.06s23.64-15,24.22-14c0,0-22.52,12.37-21.26,14.55,0,0,23.7-16.16,24.77-14.3,1.52,2.63-20.79,14.68-20.79,14.68s22.64-16.76,24.24-14c0,0-22.61,13.92-22.19,14.64,1.38,2.39,25.2-15.48,25.6-14.78.07.12-22.35,13.92-21.68,15.08,0,0,24.91-14.84,25.11-14.5,0,0-24.89,13.28-23.49,15.71,0,0,25.58-17.9,26.94-15.55,1.64,2.84-25.33,13.59-24,15.87,0,0,26.48-15.4,26.53-15.32,1.16,2-23.19,14-22.21,15.7s25.44-18.92,27.28-15.75c.84,1.46-23.84,15.84-23.84,15.84,1.44,2.49,26.11-19.14,27.87-16.09.71,1.22-25.47,16.08-25.23,16.49.5.87,27.09-18.8,28.46-16.43.53.92-25.22,16-25.07,16.27,0,0,28.2-17.27,28.63-16.53,0,0-28.51,14.86-27,17.42,0,0,29.5-17.73,29.8-17.21,1.67,2.9-28,15.33-26.82,17.43.43.75,29.78-19.51,30.78-17.77,0,.05-29.57,14.75-27.66,18.06,0,0,29-20.61,30.65-17.7,1.41,2.43-27.85,15.52-26.6,17.68,1.35,2.34,31.94-18.44,31.94-18.44.51.89-27.88,17.6-27.65,18,2.08,3.6,31.4-19.2,31.86-18.4,1.38,2.39-31.38,15.75-29.37,19.24.06.1,31.6-23.47,33.86-19.55,1,1.76-30.32,17.77-29.31,19.51L292,491.65s-32.87,16.88-30.91,20.26c.72,1.24,36-21.09,36.12-20.85.69,1.19-32.63,19.45-32.09,20.38,1.05,1.82,36.56-22.07,37-21.35,1.78,3.09-34.37,19.79-33.53,21.24,0,0,37.15-24.93,38.66-22.32,0,0-35.69,19.72-34.33,22.06,2.67,4.62,40.07-25.37,41-23.69,0,0-38.6,19.25-36.16,23.47,0,0,42-29.9,44.46-25.67l-40.12,25.53c2.31,4,50.15-29,50.15-29,1.25,2.16-46.62,25.43-45.06,28.14.33.57,54-33,54.79-31.63L292.1,509c1,1.75,58.6-41.23,61.8-35.68,0,0-57.74,33.75-56.88,35.24,3.32,5.74,148.62-106.92,157.76-91.08L301.4,508c1.25,2.17,142.48-98.5,149.51-86.32,6.22,10.77-148,80.64-145.19,85.57,0,0,137.36-89.93,142-82,8.67,15-141.9,67.33-134.61,80,0,0,127.22-80.77,130.39-75.28,7.18,12.43-124.65,70.1-122.63,73.6,1.91,3.32,110.15-79.49,117-67.57,5.89,10.2-111.52,56.44-106.89,64.46,6.13,10.61,100-57.72,100-57.72,4.35,7.53-92.6,55.21-92.48,55.42,3.16,5.48,81-57.33,85.6-49.42,0,0-72.8,43.6-72.35,44.39s60.18-39,62-35.81l-49.54,30.52s35.53-23.81,37-21.34" fill="none" stroke="#00286f" stroke-linecap="round" stroke-linejoin="round" stroke-width="0.7"/></g></svg>